<?xml version="1.0" encoding="UTF-8"?>
<svg id="Layer_1" xmlns="http://www.w3.org/2000/svg" xmlns:xlink="http://www.w3.org/1999/xlink" version="1.1" viewBox="0 0 200 200">
  <!-- Generator: Adobe Illustrator 30.2.1, SVG Export Plug-In . SVG Version: 2.1.1 Build 1)  -->
  <defs>
    <style>
      .st0 {
        fill: none;
      }

      .st1 {
        fill: url(#linear-gradient2);
      }

      .st2 {
        fill: url(#linear-gradient1);
      }

      .st3 {
        fill: url(#linear-gradient9);
      }

      .st4 {
        fill: url(#linear-gradient3);
      }

      .st5 {
        fill: url(#linear-gradient6);
      }

      .st6 {
        fill: url(#linear-gradient8);
      }

      .st7 {
        fill: url(#linear-gradient7);
      }

      .st8 {
        fill: url(#linear-gradient5);
      }

      .st9 {
        fill: url(#linear-gradient4);
      }

      .st10 {
        fill: url(#linear-gradient13);
      }

      .st11 {
        fill: url(#linear-gradient12);
      }

      .st12 {
        fill: url(#linear-gradient11);
      }

      .st13 {
        fill: url(#linear-gradient10);
      }

      .st14 {
        fill: url(#linear-gradient);
      }

      .st15, .st16 {
        isolation: isolate;
      }

      .st16 {
        font-family: Cairo-SemiBold, Cairo;
        font-size: 7.73px;
        font-weight: 600;
      }

      .st17 {
        opacity: .04;
      }
    </style>
    <linearGradient id="linear-gradient" x1="60.17" y1="112.88" x2="67.39" y2="112.88" gradientTransform="translate(0 202) scale(1 -1)" gradientUnits="userSpaceOnUse">
      <stop offset="0" stop-color="#0f987f"/>
      <stop offset="1" stop-color="#2ab450"/>
    </linearGradient>
    <linearGradient id="linear-gradient1" x1="66.95" y1="110.28" x2="74.39" y2="110.28" gradientTransform="translate(0 202) scale(1 -1)" gradientUnits="userSpaceOnUse">
      <stop offset="0" stop-color="#0f987f"/>
      <stop offset="1" stop-color="#2ab450"/>
    </linearGradient>
    <linearGradient id="linear-gradient2" x1="75.33" y1="110.92" x2="81.52" y2="110.92" gradientTransform="translate(0 202) scale(1 -1)" gradientUnits="userSpaceOnUse">
      <stop offset="0" stop-color="#0f987f"/>
      <stop offset="1" stop-color="#2ab450"/>
    </linearGradient>
    <linearGradient id="linear-gradient3" x1="82.94" y1="112.92" x2="86.33" y2="112.92" gradientTransform="translate(0 202) scale(1 -1)" gradientUnits="userSpaceOnUse">
      <stop offset="0" stop-color="#0f987f"/>
      <stop offset="1" stop-color="#2ab450"/>
    </linearGradient>
    <linearGradient id="linear-gradient4" x1="85.89" y1="112.37" x2="92.94" y2="112.37" gradientTransform="translate(0 202) scale(1 -1)" gradientUnits="userSpaceOnUse">
      <stop offset="0" stop-color="#0f987f"/>
      <stop offset="1" stop-color="#2ab450"/>
    </linearGradient>
    <linearGradient id="linear-gradient5" x1="92.5" y1="112.93" x2="96.89" y2="112.93" gradientTransform="translate(0 202) scale(1 -1)" gradientUnits="userSpaceOnUse">
      <stop offset="0" stop-color="#0f987f"/>
      <stop offset="1" stop-color="#2ab450"/>
    </linearGradient>
    <linearGradient id="linear-gradient6" x1="97.75" y1="112.92" x2="99.54" y2="112.92" gradientTransform="translate(0 202) scale(1 -1)" gradientUnits="userSpaceOnUse">
      <stop offset="0" stop-color="#0f987f"/>
      <stop offset="1" stop-color="#2ab450"/>
    </linearGradient>
    <linearGradient id="linear-gradient7" x1="103.65" y1="111.96" x2="109" y2="111.96" gradientTransform="translate(0 202) scale(1 -1)" gradientUnits="userSpaceOnUse">
      <stop offset="0" stop-color="#0f987f"/>
      <stop offset="1" stop-color="#2ab450"/>
    </linearGradient>
    <linearGradient id="linear-gradient8" x1="109.7" y1="112.91" x2="119.01" y2="112.91" gradientTransform="translate(0 202) scale(1 -1)" gradientUnits="userSpaceOnUse">
      <stop offset="0" stop-color="#0f987f"/>
      <stop offset="1" stop-color="#2ab450"/>
    </linearGradient>
    <linearGradient id="linear-gradient9" x1="118.58" y1="110.32" x2="132.57" y2="110.32" gradientTransform="translate(0 202) scale(1 -1)" gradientUnits="userSpaceOnUse">
      <stop offset="0" stop-color="#0f987f"/>
      <stop offset="1" stop-color="#2ab450"/>
    </linearGradient>
    <linearGradient id="linear-gradient10" x1="132.12" y1="112.93" x2="136.51" y2="112.93" gradientTransform="translate(0 202) scale(1 -1)" gradientUnits="userSpaceOnUse">
      <stop offset="0" stop-color="#0f987f"/>
      <stop offset="1" stop-color="#2ab450"/>
    </linearGradient>
    <linearGradient id="linear-gradient11" x1="137.37" y1="112.92" x2="139.16" y2="112.92" gradientTransform="translate(0 202) scale(1 -1)" gradientUnits="userSpaceOnUse">
      <stop offset="0" stop-color="#0f987f"/>
      <stop offset="1" stop-color="#2ab450"/>
    </linearGradient>
    <linearGradient id="linear-gradient12" x1="81.68" y1="2293.21" x2="116.52" y2="2293.21" gradientTransform="translate(0 -2234)" gradientUnits="userSpaceOnUse">
      <stop offset="0" stop-color="#0f987f"/>
      <stop offset="1" stop-color="#2ab450"/>
    </linearGradient>
    <linearGradient id="linear-gradient13" x1="-2882.38" y1="926.61" x2="-2878.98" y2="923.46" gradientTransform="translate(14848.48 4793) scale(5.12 -5.12)" gradientUnits="userSpaceOnUse">
      <stop offset="0" stop-color="#f0ba68"/>
      <stop offset="1" stop-color="#da8040"/>
    </linearGradient>
  </defs>
  <g class="st17">
    <rect x="16" y="16" width="168" height="168" rx="28" ry="28"/>
    <rect class="st0" x="16.5" y="16.5" width="167" height="167" rx="28" ry="28"/>
  </g>
  <g id="Don_x27_t_change">
    <g>
      <path class="st14" d="M60.17,91.91c0-1.23.79-2.37,2.77-3.35l1.34-.73,1.04-1.75h.44v5.3c0,.91.34,1.17,1.62,1.17v2.14l-.44.44c-1.77.02-2.27-.81-2.58-3.32l-.47,1.86c-.44.24-.96.34-1.52.34-1.33,0-2.2-.73-2.2-2.09h0ZM62.51,91.43c.63,0,1.34-.08,1.8-.23l-.19-1.72-1.91.57c-.84.23-1.2.53-1.2.83,0,.37.5.55,1.51.55h0ZM63.38,83.11l1.09,1.1,1.12-1.1,1.25,1.26-1.25,1.25-1.12-1.09-1.09,1.09-1.28-1.25,1.28-1.26Z"/>
      <path class="st2" d="M67.39,92.54c1.22,0,1.62-.36,2.22-1.57l.41-.83c.68-1.38,1.2-1.83,1.98-1.83,1.3,0,2.4,1.43,2.4,3.16,0,1.12-.49,2.4-1.38,3.52-1.05-.16-2.58-.62-3.95-1.38-.52,1.05-1.15,1.51-2.11,1.51v-2.14l.44-.44h-.01ZM69.95,91.35c1.25.58,2.75,1,3.89,1.23-.37-.89-1.75-1.91-2.8-1.91-.47,0-.81.24-1.09.68Z"/>
      <path class="st1" d="M75.33,93.27c0-.6.18-1.28.34-1.81h.42c0,1.09.37,1.36,2.03,1.36,1.28,0,2.22-.18,2.82-.42-.44-.76-1.54-1.73-3.68-3.32l1.05-2.33h.42c1.99,1.99,2.79,3.34,2.79,4.76,0,.96-.1,1.75-.39,3.1-.73.47-1.93.79-3.29.79-1.8,0-2.51-.84-2.51-2.12h0Z"/>
      <path class="st4" d="M83.22,91.38l-.28-6.08,1.34-2.27h.44v8.35c0,.91.34,1.17,1.6,1.17v2.14l-.42.44c-1.88.02-2.54-.91-2.69-3.74h.01Z"/>
      <path class="st9" d="M86.33,92.54c.37,0,.71,0,1.04-.02-.11-.34-.18-.71-.18-1.12,0-1.9,1.36-3.89,2.69-3.89,1.2,0,2.22,1.47,2.22,3.11,0,.65-.21,1.28-.58,1.85.45.05.94.06,1.43.06v2.14l-.44.44c-1.38,0-2.51-.24-3.39-.68-.96.42-2.06.68-3.22.68v-2.14l.44-.44h-.01ZM88.63,84.15l1.09,1.1,1.12-1.1,1.25,1.26-1.25,1.25-1.12-1.09-1.09,1.09-1.28-1.25,1.28-1.26ZM90.2,92.29c.88-.18,1.3-.45,1.3-.81,0-.68-1.2-1.38-2.28-1.38-.81,0-1.44.32-1.44.78,0,.58.97,1.1,2.43,1.41h-.01Z"/>
      <path class="st8" d="M92.94,92.54c.44,0,.89-.05,1.36-.15l-.24-6.13c-.75-1.22-.32-2.45,1.2-3.24h.44v1.38l1.2,1.67-1.2.88v4.47c0,1.09-.23,2.27-.5,3.11-.79.39-1.65.58-2.69.58v-2.14l.44-.44h-.01Z"/>
      <path class="st5" d="M97.75,85.3l1.34-2.27h.44v8.91l-.96,3.18h-.44l-.39-9.82h.01Z"/>
      <path class="st7" d="M103.65,92.76c0-.99.37-1.96,1.2-2.95v-2.12c3.31,1.02,4.15,1.96,4.15,4.41,0,2.14-.96,3.31-2.75,3.31-1.57,0-2.59-1.04-2.59-2.64h-.01ZM105.26,84.67l1.09,1.1,1.12-1.1,1.25,1.26-1.25,1.25-1.12-1.09-1.09,1.09-1.28-1.25,1.28-1.26ZM106.34,92.82c1.25,0,2.06-.29,2.06-.78,0-.45-.94-1-2.8-1.54-.88.62-1.34,1.17-1.34,1.56,0,.49.75.76,2.09.76h0Z"/>
      <path class="st6" d="M109.7,94.68l3.86-1.93c.13-.06.26-.13.37-.19-.11-1.12-.6-1.78-1.86-2.79l-.83-.65h-1.54v-3.35l.32-.31,2.07,1.69c1.88,1.49,2.51,2.59,2.5,5.01,1.02-.68,1.28-1.39,1.23-2.69l-.21-4.16,1.34-2.27h.44v8.35c0,.91.34,1.17,1.62,1.17v2.14l-.44.44c-1.75.02-2.64-.78-2.64-3.22v-.44h-.06c-.34,1.31-.83,2.46-1.56,3.66h-4.62v-.46Z"/>
      <path class="st3" d="M119.01,92.54c1.41,0,1.98-.29,2.59-1.2l.41-.58.37.21-.49.92-.03.06c.42.28.83.47,1.26.62,2.37-3.34,3.73-4.6,5.49-4.6,1.56,0,2.69,1.13,2.69,2.77,0,.47-.08,1.09-.24,1.77.44.02.92.03,1.49.03v2.19l-.44.39c-1.17,0-2.14-.15-3.05-.44-1.34.45-2.95.71-4.41.71s-2.82-.45-3.95-1.38c-.6.79-1.23,1.1-2.14,1.1v-2.14l.44-.44h0ZM123.7,92.72c.36.06.76.1,1.18.1,2.03,0,4.23-.37,5.72-.94-.6-.76-1.77-1.33-2.87-1.33-1.36,0-2.53.62-4.03,2.17Z"/>
      <path class="st13" d="M132.56,92.54c.44,0,.89-.05,1.36-.15l-.24-6.13c-.75-1.22-.32-2.45,1.2-3.24h.44v1.38l1.2,1.67-1.2.88v4.47c0,1.09-.23,2.27-.5,3.11-.79.39-1.65.58-2.69.58v-2.14l.44-.44h0Z"/>
      <path class="st12" d="M137.37,85.3l1.34-2.27h.44v8.91l-.96,3.18h-.44l-.39-9.82h.01Z"/>
    </g>
    <g id="Logo">
      <path class="st11" d="M100.16,74.76c-.51.51-1.37.73-1.89.21l-13.47-13.47c-4.02-4.06-4.14-10.53-.42-14.72,3.75-4.22,10.14-4.88,14.73-1.33,4.54-3.53,10.89-2.91,14.64,1.23s3.72,10.61-.25,14.73l-13.34,13.34h0Z"/>
      <path class="st10" d="M103.86,49.59h-.13c-3,0-5.43,2.43-5.43,5.43s2.43,5.43,5.43,5.43c1.6,0,3.03-.69,4.02-1.78-.84,3.78-4.21,6.61-8.25,6.61-4.66,0-8.45-3.78-8.45-8.45s3.78-8.45,8.45-8.45c1.59,0,3.09.44,4.36,1.21h0Z"/>
    </g>
  </g>
  <g class="st15">
    <g>
      <path d="M55.77,127.35c-1.04,0-1.96-.15-2.77-.44s-1.5-.78-2.08-1.46c-.57-.68-1.01-1.61-1.31-2.77-.3-1.17-.45-2.61-.45-4.34,0-1.84.15-3.38.44-4.62.29-1.24.72-2.22,1.3-2.95s1.27-1.25,2.08-1.56,1.74-.46,2.77-.46,2.02.15,2.84.46,1.51.83,2.06,1.56.98,1.71,1.27,2.94.44,2.77.44,4.63c0,2.29-.26,4.1-.79,5.41-.53,1.31-1.28,2.24-2.25,2.79s-2.15.82-3.54.82h0ZM55.77,125.41c.71,0,1.33-.11,1.87-.33.54-.22.99-.59,1.35-1.12.36-.53.64-1.25.82-2.17s.27-2.07.27-3.46c0-1.51-.09-2.76-.26-3.74s-.44-1.76-.79-2.34c-.36-.57-.8-.98-1.34-1.22s-1.18-.36-1.93-.36-1.37.12-1.91.36-1,.64-1.35,1.2-.62,1.34-.81,2.34c-.18.99-.27,2.25-.27,3.78,0,1.38.1,2.54.29,3.46.19.92.47,1.64.85,2.16.37.52.83.89,1.37,1.11.54.22,1.15.33,1.84.33Z"/>
      <path d="M71.07,127.35c-1.04,0-1.96-.15-2.77-.44s-1.5-.78-2.08-1.46c-.57-.68-1.01-1.61-1.31-2.77-.3-1.17-.45-2.61-.45-4.34,0-1.84.15-3.38.44-4.62.29-1.24.72-2.22,1.3-2.95s1.27-1.25,2.08-1.56c.81-.31,1.74-.46,2.77-.46s2.02.15,2.84.46,1.51.83,2.06,1.56.98,1.71,1.27,2.94c.29,1.23.44,2.77.44,4.63,0,2.29-.26,4.1-.79,5.41-.53,1.31-1.28,2.24-2.25,2.79s-2.15.82-3.54.82h-.01ZM71.07,125.41c.71,0,1.33-.11,1.87-.33s.99-.59,1.35-1.12c.36-.53.64-1.25.82-2.17s.27-2.07.27-3.46c0-1.51-.09-2.76-.26-3.74s-.44-1.76-.79-2.34c-.36-.57-.8-.98-1.34-1.22-.54-.24-1.18-.36-1.93-.36s-1.37.12-1.91.36-1,.64-1.35,1.2-.62,1.34-.81,2.34c-.18.99-.27,2.25-.27,3.78,0,1.38.1,2.54.29,3.46s.47,1.64.85,2.16c.37.52.83.89,1.37,1.11s1.15.33,1.84.33Z"/>
      <path d="M80.55,118.33v-3.2h2.32v3.2h-2.32ZM80.55,127.07v-3.2h2.32v3.2h-2.32Z"/>
      <path d="M94.48,127.07v-3.5h-8.69v-1.69l5.11-12.84h2.4l-5.22,12.6h6.39v-5.57h2.19v5.57h2.27v1.94h-2.27v3.5h-2.19.01Z"/>
      <path d="M106.39,127.35l-2.05-.63,6.75-14.97v-.74h-8.99v-1.97h11.23v2.84l-6.94,15.46h0Z"/>
      <path d="M117.13,118.33v-3.2h2.32v3.2h-2.32ZM117.13,127.07v-3.2h2.32v3.2h-2.32Z"/>
      <path d="M128.93,127.35c-1.04,0-1.96-.15-2.77-.44s-1.5-.78-2.08-1.46c-.57-.68-1.01-1.61-1.31-2.77-.3-1.17-.45-2.61-.45-4.34,0-1.84.15-3.38.44-4.62.29-1.24.72-2.22,1.3-2.95.57-.73,1.27-1.25,2.08-1.56.81-.31,1.74-.46,2.77-.46s2.02.15,2.84.46c.82.31,1.51.83,2.06,1.56s.98,1.71,1.27,2.94c.29,1.23.44,2.77.44,4.63,0,2.29-.26,4.1-.79,5.41s-1.28,2.24-2.25,2.79-2.15.82-3.54.82h-.01ZM128.93,125.41c.71,0,1.33-.11,1.87-.33s.99-.59,1.35-1.12c.36-.53.64-1.25.82-2.17.18-.92.27-2.07.27-3.46,0-1.51-.09-2.76-.26-3.74-.17-.98-.44-1.76-.79-2.34-.35-.57-.8-.98-1.34-1.22s-1.18-.36-1.93-.36-1.37.12-1.91.36c-.55.24-1,.64-1.35,1.2-.36.56-.62,1.34-.81,2.34-.18.99-.27,2.25-.27,3.78,0,1.38.1,2.54.29,3.46s.47,1.64.85,2.16c.37.52.83.89,1.37,1.11s1.15.33,1.84.33h0Z"/>
      <path d="M144.24,127.35c-1.04,0-1.96-.15-2.77-.44s-1.5-.78-2.08-1.46c-.57-.68-1.01-1.61-1.31-2.77-.3-1.17-.45-2.61-.45-4.34,0-1.84.15-3.38.44-4.62.29-1.24.72-2.22,1.3-2.95.57-.73,1.27-1.25,2.08-1.56s1.74-.46,2.77-.46,2.02.15,2.84.46c.82.31,1.51.83,2.06,1.56s.98,1.71,1.27,2.94c.29,1.23.44,2.77.44,4.63,0,2.29-.26,4.1-.79,5.41s-1.28,2.24-2.25,2.79-2.15.82-3.54.82h-.01ZM144.24,125.41c.71,0,1.33-.11,1.87-.33s.99-.59,1.35-1.12c.36-.53.64-1.25.82-2.17.18-.92.27-2.07.27-3.46,0-1.51-.09-2.76-.26-3.74-.17-.98-.44-1.76-.79-2.34-.35-.57-.8-.98-1.34-1.22s-1.18-.36-1.93-.36-1.37.12-1.91.36c-.55.24-1,.64-1.35,1.2-.36.56-.62,1.34-.81,2.34-.18.99-.27,2.25-.27,3.78,0,1.38.1,2.54.29,3.46.19.92.47,1.64.85,2.16.37.52.83.89,1.37,1.11s1.15.33,1.84.33h0Z"/>
    </g>
  </g>
  <g class="st15">
    <text class="st16" transform="translate(35.03 138.45)"><tspan x="0" y="0">الوقت المتبقي على صلاة الفجر</tspan></text>
  </g>
</svg>