<?xml version="1.0" encoding="UTF-8"?>
<svg id="Layer_1" xmlns="http://www.w3.org/2000/svg" xmlns:xlink="http://www.w3.org/1999/xlink" version="1.1" viewBox="0 0 390 338">
  <!-- Generator: Adobe Illustrator 30.2.1, SVG Export Plug-In . SVG Version: 2.1.1 Build 1)  -->
  <defs>
    <style>
      .st0, .st1 {
        fill: none;
      }

      .st2 {
        fill: url(#linear-gradient2);
      }

      .st3 {
        fill: url(#linear-gradient1);
      }

      .st4 {
        fill: url(#linear-gradient9);
      }

      .st5 {
        fill: url(#linear-gradient3);
      }

      .st6 {
        fill: url(#linear-gradient6);
      }

      .st7 {
        fill: url(#linear-gradient8);
      }

      .st8 {
        fill: url(#linear-gradient7);
      }

      .st9 {
        fill: url(#linear-gradient5);
      }

      .st10 {
        fill: url(#linear-gradient4);
      }

      .st11 {
        fill: url(#linear-gradient13);
      }

      .st12 {
        fill: url(#linear-gradient12);
      }

      .st13 {
        fill: url(#linear-gradient11);
      }

      .st14 {
        fill: url(#linear-gradient10);
      }

      .st15, .st16, .st17 {
        font-family: Cairo-SemiBold, Cairo;
        font-weight: 600;
      }

      .st15, .st18 {
        fill: #fff;
      }

      .st15, .st17 {
        font-size: 18.9px;
      }

      .st1 {
        stroke: #00a651;
        stroke-miterlimit: 10;
      }

      .st19 {
        fill: url(#linear-gradient);
      }

      .st20 {
        isolation: isolate;
      }

      .st16 {
        font-size: 7.48px;
      }

      .st21 {
        fill: #081827;
        opacity: .17;
      }

      .st22 {
        opacity: .38;
      }

      .st23 {
        opacity: .09;
      }
    </style>
    <linearGradient id="linear-gradient" x1="336.71" y1="286.02" x2="366.7" y2="286.02" gradientTransform="translate(0 340) scale(1 -1)" gradientUnits="userSpaceOnUse">
      <stop offset="0" stop-color="#0f987f"/>
      <stop offset="1" stop-color="#2ab450"/>
    </linearGradient>
    <linearGradient id="linear-gradient1" x1="-2384.61" y1="229.01" x2="-2381.68" y2="231.73" gradientTransform="translate(12553.64 -1127.56) scale(5.12)" gradientUnits="userSpaceOnUse">
      <stop offset="0" stop-color="#f0ba68"/>
      <stop offset="1" stop-color="#da8040"/>
    </linearGradient>
    <linearGradient id="linear-gradient2" x1="190.26" y1="52.14" x2="199.62" y2="52.14" gradientTransform="matrix(1,0,0,1,0,0)" xlink:href="#linear-gradient"/>
    <linearGradient id="linear-gradient3" x1="200.84" y1="50.47" x2="217.17" y2="50.47" gradientTransform="matrix(1,0,0,1,0,0)" xlink:href="#linear-gradient"/>
    <linearGradient id="linear-gradient4" x1="216.4" y1="55.04" x2="240.9" y2="55.04" gradientTransform="matrix(1,0,0,1,0,0)" xlink:href="#linear-gradient"/>
    <linearGradient id="linear-gradient5" x1="240.13" y1="50.47" x2="247.82" y2="50.47" gradientTransform="matrix(1,0,0,1,0,0)" xlink:href="#linear-gradient"/>
    <linearGradient id="linear-gradient6" x1="249.33" y1="50.47" x2="252.45" y2="50.47" gradientTransform="matrix(1,0,0,1,0,0)" xlink:href="#linear-gradient"/>
    <linearGradient id="linear-gradient7" x1="259.6" y1="53.96" x2="274.39" y2="53.96" gradientTransform="matrix(1,0,0,1,0,0)" xlink:href="#linear-gradient"/>
    <linearGradient id="linear-gradient8" x1="273.63" y1="59.41" x2="282.37" y2="59.41" gradientTransform="matrix(1,0,0,1,0,0)" xlink:href="#linear-gradient"/>
    <linearGradient id="linear-gradient9" x1="281.6" y1="53.99" x2="295.37" y2="53.99" gradientTransform="matrix(1,0,0,1,0,0)" xlink:href="#linear-gradient"/>
    <linearGradient id="linear-gradient10" x1="298.01" y1="50.47" x2="301.13" y2="50.47" gradientTransform="matrix(1,0,0,1,0,0)" xlink:href="#linear-gradient"/>
    <linearGradient id="linear-gradient11" x1="302.18" y1="58.84" x2="314.05" y2="58.84" gradientTransform="matrix(1,0,0,1,0,0)" xlink:href="#linear-gradient"/>
    <linearGradient id="linear-gradient12" x1="313.28" y1="55.1" x2="326.31" y2="55.1" gradientTransform="matrix(1,0,0,1,0,0)" xlink:href="#linear-gradient"/>
    <linearGradient id="linear-gradient13" x1="27.63" y1="107.5" x2="95.67" y2="107.5" gradientTransform="matrix(1,0,0,1,0,0)" xlink:href="#linear-gradient"/>
  </defs>
  <rect class="st23" x="10" y="19.02" width="370" height="299.34" rx="19.78" ry="19.78"/>
  <rect class="st21" x="23.74" y="91.42" width="339.23" height="33.07" rx="9.11" ry="9.11"/>
  <rect class="st1" x="23.74" y="91.42" width="339.23" height="33.07" rx="9.11" ry="9.11"/>
  <rect class="st0" x="10.5" y="94.5" width="369" height="149" rx="14" ry="14"/>
  <g id="Logo">
    <path class="st19" d="M352.61,67.36c-.44.44-1.18.62-1.63.18l-11.6-11.59c-3.46-3.5-3.56-9.07-.36-12.67,3.23-3.63,8.73-4.2,12.68-1.14,3.91-3.04,9.37-2.5,12.61,1.06s3.2,9.14-.22,12.68l-11.49,11.49Z"/>
    <path class="st3" d="M355.79,45.69h-.11c-2.58,0-4.67,2.09-4.67,4.67s2.09,4.67,4.67,4.67c1.37,0,2.61-.59,3.46-1.54-.72,3.26-3.63,5.69-7.1,5.69-4.02,0-7.27-3.26-7.27-7.27s3.26-7.27,7.27-7.27c1.37,0,2.66.38,3.75,1.04h0Z"/>
  </g>
  <g class="st20">
    <g>
      <path d="M31.2,56.99c-1,0-1.9-.14-2.68-.42-.78-.28-1.45-.75-2.01-1.41-.56-.66-.98-1.55-1.27-2.68-.29-1.13-.44-2.53-.44-4.2,0-1.78.14-3.27.42-4.46.28-1.2.7-2.15,1.25-2.85.55-.7,1.22-1.21,2.01-1.51.78-.3,1.68-.45,2.68-.45s1.96.15,2.75.45c.79.3,1.46.8,1.99,1.51.54.7.95,1.65,1.23,2.84.28,1.19.42,2.68.42,4.48,0,2.22-.26,3.96-.77,5.23-.51,1.27-1.24,2.17-2.18,2.69s-2.08.79-3.42.79ZM31.2,55.12c.69,0,1.29-.11,1.81-.32.52-.21.96-.57,1.31-1.08.35-.51.62-1.21.79-2.1.18-.89.26-2,.26-3.34,0-1.46-.08-2.67-.25-3.62-.17-.95-.42-1.7-.77-2.26-.34-.55-.77-.95-1.29-1.18-.52-.23-1.14-.34-1.86-.34s-1.32.11-1.85.34c-.53.23-.96.62-1.31,1.16-.34.55-.6,1.3-.78,2.26-.18.96-.26,2.18-.26,3.66,0,1.34.09,2.45.28,3.34.18.89.46,1.58.82,2.09.36.5.8.86,1.32,1.07.52.21,1.11.32,1.78.32Z"/>
      <path d="M45.99,56.99c-1,0-1.9-.14-2.68-.42-.78-.28-1.45-.75-2.01-1.41-.56-.66-.98-1.55-1.27-2.68-.29-1.13-.44-2.53-.44-4.2,0-1.78.14-3.27.42-4.46.28-1.2.7-2.15,1.25-2.85.55-.7,1.22-1.21,2.01-1.51.78-.3,1.68-.45,2.68-.45s1.96.15,2.75.45c.79.3,1.46.8,1.99,1.51.54.7.95,1.65,1.23,2.84.28,1.19.42,2.68.42,4.48,0,2.22-.26,3.96-.77,5.23-.51,1.27-1.24,2.17-2.18,2.69s-2.08.79-3.42.79ZM45.99,55.12c.69,0,1.29-.11,1.81-.32.52-.21.96-.57,1.31-1.08.35-.51.62-1.21.79-2.1.18-.89.26-2,.26-3.34,0-1.46-.08-2.67-.25-3.62-.17-.95-.42-1.7-.77-2.26-.34-.55-.77-.95-1.29-1.18-.52-.23-1.14-.34-1.86-.34s-1.32.11-1.85.34c-.53.23-.96.62-1.31,1.16-.34.55-.6,1.3-.78,2.26-.18.96-.26,2.18-.26,3.66,0,1.34.09,2.45.28,3.34.18.89.46,1.58.82,2.09.36.5.8.86,1.32,1.07.52.21,1.11.32,1.78.32Z"/>
      <path d="M55.16,48.27v-3.09h2.25v3.09h-2.25ZM55.16,56.73v-3.09h2.25v3.09h-2.25Z"/>
      <path d="M68.63,56.73v-3.38h-8.4v-1.64l4.94-12.42h2.32l-5.05,12.18h6.18v-5.39h2.11v5.39h2.19v1.88h-2.19v3.38h-2.11Z"/>
      <path d="M80.15,56.99l-1.98-.61,6.53-14.48v-.71h-8.69v-1.9h10.86v2.75l-6.71,14.95Z"/>
      <path d="M90.53,48.27v-3.09h2.25v3.09h-2.25ZM90.53,56.73v-3.09h2.25v3.09h-2.25Z"/>
      <path d="M101.95,56.99c-1,0-1.9-.14-2.68-.42-.78-.28-1.45-.75-2.01-1.41-.56-.66-.98-1.55-1.27-2.68-.29-1.13-.44-2.53-.44-4.2,0-1.78.14-3.27.42-4.46.28-1.2.7-2.15,1.25-2.85.55-.7,1.22-1.21,2.01-1.51.78-.3,1.68-.45,2.68-.45s1.96.15,2.75.45c.79.3,1.46.8,1.99,1.51.54.7.95,1.65,1.23,2.84.28,1.19.42,2.68.42,4.48,0,2.22-.26,3.96-.77,5.23-.51,1.27-1.24,2.17-2.18,2.69s-2.08.79-3.42.79ZM101.95,55.12c.69,0,1.29-.11,1.81-.32.52-.21.96-.57,1.31-1.08.35-.51.62-1.21.79-2.1.18-.89.26-2,.26-3.34,0-1.46-.08-2.67-.25-3.62-.17-.95-.42-1.7-.77-2.26-.34-.55-.77-.95-1.29-1.18-.52-.23-1.14-.34-1.86-.34s-1.32.11-1.85.34c-.53.23-.96.62-1.31,1.16-.34.55-.6,1.3-.78,2.26-.18.96-.26,2.18-.26,3.66,0,1.34.09,2.45.28,3.34.18.89.46,1.58.82,2.09.36.5.8.86,1.32,1.07.52.21,1.11.32,1.78.32Z"/>
      <path d="M116.74,56.99c-1,0-1.9-.14-2.68-.42-.78-.28-1.45-.75-2.01-1.41-.56-.66-.98-1.55-1.27-2.68-.29-1.13-.44-2.53-.44-4.2,0-1.78.14-3.27.42-4.46.28-1.2.7-2.15,1.25-2.85.55-.7,1.22-1.21,2.01-1.51.78-.3,1.68-.45,2.68-.45s1.96.15,2.75.45c.79.3,1.46.8,1.99,1.51.54.7.95,1.65,1.23,2.84.28,1.19.42,2.68.42,4.48,0,2.22-.26,3.96-.77,5.23-.51,1.27-1.24,2.17-2.18,2.69s-2.08.79-3.42.79ZM116.74,55.12c.69,0,1.29-.11,1.81-.32.52-.21.96-.57,1.31-1.08.35-.51.62-1.21.79-2.1.18-.89.26-2,.26-3.34,0-1.46-.08-2.67-.25-3.62-.17-.95-.42-1.7-.77-2.26-.34-.55-.77-.95-1.29-1.18-.52-.23-1.14-.34-1.86-.34s-1.32.11-1.85.34c-.53.23-.96.62-1.31,1.16-.34.55-.6,1.3-.78,2.26-.18.96-.26,2.18-.26,3.66,0,1.34.09,2.45.28,3.34.18.89.46,1.58.82,2.09.36.5.8.86,1.32,1.07.52.21,1.11.32,1.78.32Z"/>
    </g>
  </g>
  <text class="st16" transform="translate(19.74 67.73)"><tspan x="0" y="0">الوقت المتبقي على الصلاة القادمة</tspan></text>
  <g>
    <path class="st2" d="M190.26,56.91c0-1.73.65-3.43,2.1-5.17v-3.72c5.79,1.79,7.27,3.43,7.27,7.72,0,3.75-1.67,5.79-4.83,5.79-2.75,0-4.54-1.82-4.54-4.63ZM193.07,42.75l1.9,1.93,1.96-1.93,2.19,2.21-2.19,2.19-1.96-1.9-1.9,1.9-2.24-2.19,2.24-2.21ZM194.97,57.03c2.19,0,3.61-.51,3.61-1.36,0-.79-1.65-1.76-4.91-2.7-1.53,1.08-2.36,2.04-2.36,2.73,0,.85,1.31,1.33,3.66,1.33Z"/>
    <path class="st5" d="M200.84,60.29l6.76-3.38c.23-.11.45-.23.65-.34-.2-1.96-1.05-3.12-3.26-4.88l-1.45-1.14h-2.7v-5.88l.57-.54,3.63,2.95c3.29,2.61,4.4,4.54,4.37,8.77,1.79-1.19,2.24-2.44,2.16-4.71l-.37-7.3,2.36-3.97h.77v14.62c0,1.59.6,2.04,2.84,2.04v3.75l-.77.77c-3.07.03-4.63-1.36-4.63-5.65v-.77h-.11c-.6,2.3-1.45,4.31-2.73,6.42h-8.09v-.77Z"/>
    <path class="st10" d="M217.17,56.54c2.47,0,3.46-.51,4.54-2.1l.71-1.02.65.37-.85,1.62-.06.11c.74.48,1.45.82,2.21,1.08,4.14-5.85,6.53-8.06,9.62-8.06,2.73,0,4.71,1.99,4.71,4.85,0,.82-.14,1.9-.43,3.09.77.03,1.62.06,2.61.06v3.83l-.77.68c-2.04,0-3.75-.26-5.34-.77-2.36.79-5.17,1.25-7.72,1.25s-4.94-.79-6.93-2.41c-1.05,1.39-2.16,1.93-3.75,1.93v-3.75l.77-.77ZM225.37,56.86c.62.11,1.33.17,2.07.17,3.55,0,7.41-.65,10.02-1.65-1.05-1.33-3.09-2.33-5.02-2.33-2.38,0-4.43,1.08-7.07,3.8Z"/>
    <path class="st9" d="M240.9,56.54c.77,0,1.56-.09,2.38-.26l-.43-10.73c-1.31-2.13-.57-4.29,2.1-5.68h.77v2.41l2.1,2.92-2.1,1.53v7.83c0,1.9-.4,3.97-.88,5.45-1.39.68-2.9,1.02-4.71,1.02v-3.75l.77-.77Z"/>
    <path class="st6" d="M249.33,43.86l2.36-3.97h.77v15.61l-1.67,5.56h-.77l-.68-17.2Z"/>
    <path class="st8" d="M259.6,57.82c0-1.05.31-2.24.6-3.18h.74c0,1.9.65,2.38,3.55,2.38,1.62,0,2.95-.2,4.12-.6-.23-.48-.48-.99-.77-1.56l-2.07-4.4,1.85-4.09h.77l1.79,5.73c1.11,3.61,1.93,4.43,4.23,4.43v3.75l-.77.77c-1.85,0-2.95-.82-4.57-3.8h-.11l-.51,2.98c-1.25.88-2.87,1.31-4.43,1.31-3.15,0-4.4-1.48-4.4-3.72Z"/>
    <path class="st7" d="M273.63,61.06v-3.75l.77-.77c1.25,0,2.24-.2,3.07-.62l.91-4.12h.77v2.02c0,2.3.71,2.73,3.24,2.73v3.83l-.77.68c-2.53,0-3.95-1.33-4.2-3.78h-.09l-.62,2.84c-.82.62-1.87.94-3.07.94ZM276.21,62.62l1.9,1.93,1.96-1.93,2.19,2.21-2.19,2.19-1.96-1.9-1.9,1.9-2.24-2.19,2.24-2.21Z"/>
    <path class="st4" d="M282.37,56.54c.71,0,1.45-.03,2.13-.09-.6-.88-.91-1.9-.91-2.92,0-3.49,2.61-6.61,5.39-6.61,2.24,0,3.89,2.04,4.88,4.83l-.48.57c-1.59-.65-3.18-.97-4.71-.97-1.85,0-4.03.48-4.03,1.99,0,1.73,4.54,2.41,8.63,1.59l2.1-.43-.71,4.66-2.44.51c-4.6.94-7.92,1.39-10.62,1.39v-3.75l.77-.77Z"/>
    <path class="st14" d="M298.01,43.86l2.36-3.97h.77v15.61l-1.67,5.56h-.77l-.68-17.2Z"/>
    <path class="st13" d="M302.18,64.46c5.11-1.05,7.75-2.02,8.94-3.41h-2.7c-3.12,0-4.54-1.56-4.54-4.26,0-3.61,2.21-7.18,4.68-7.18,2.3,0,4.23,2.9,4.34,6.93h1.14v3.75l-.74.77h-.99c-.74,2.44-2.19,4.77-4.46,7.01l-5.68-2.84v-.77ZM311.33,56.54c-.79-1.48-2.33-2.58-3.89-2.58-1.36,0-2.53.79-2.53,1.65,0,.68,1.11.94,3.01.94h3.41Z"/>
    <path class="st12" d="M314.05,56.54c2.13,0,2.84-.62,3.89-2.75l.71-1.45c1.19-2.41,2.1-3.21,3.46-3.21,2.27,0,4.2,2.5,4.2,5.54,0,1.96-.85,4.2-2.41,6.16-1.85-.28-4.51-1.08-6.93-2.41-.91,1.85-2.02,2.64-3.69,2.64v-3.75l.77-.77ZM318.54,54.44c2.19,1.02,4.83,1.76,6.81,2.16-.65-1.56-3.07-3.35-4.91-3.35-.82,0-1.42.43-1.9,1.19Z"/>
  </g>
  <text class="st15" transform="translate(273.33 113.17)"><tspan x="0" y="0">صلاة الفجر</tspan></text>
  <g>
    <rect class="st11" x="27.63" y="95.35" width="68.04" height="24.3" rx="10.61" ry="10.61"/>
    <g>
      <path class="st18" d="M41.98,115.39v-2.95h-7.33v-1.43l4.31-10.83h2.03l-4.4,10.62h5.39v-4.7h1.84v4.7h1.91v1.64h-1.91v2.95h-1.84Z"/>
      <path class="st18" d="M52.02,115.62l-1.73-.53,5.69-12.63v-.62h-7.58v-1.66h9.47v2.4l-5.85,13.04Z"/>
      <path class="st18" d="M61.08,108.02v-2.7h1.96v2.7h-1.96ZM61.08,115.39v-2.7h1.96v2.7h-1.96Z"/>
      <path class="st18" d="M71.03,115.62c-.88,0-1.65-.12-2.34-.37s-1.27-.66-1.75-1.23c-.48-.58-.85-1.36-1.11-2.34-.25-.98-.38-2.2-.38-3.66,0-1.55.12-2.85.37-3.89.25-1.04.61-1.87,1.09-2.49.48-.61,1.07-1.05,1.75-1.31.68-.26,1.46-.39,2.34-.39s1.71.13,2.4.39c.69.26,1.27.7,1.74,1.31.47.61.83,1.44,1.07,2.48.25,1.04.37,2.34.37,3.91,0,1.94-.22,3.46-.67,4.56-.45,1.11-1.08,1.89-1.9,2.35-.82.46-1.82.69-2.98.69ZM71.03,113.99c.6,0,1.12-.09,1.58-.28.45-.18.83-.5,1.14-.94.31-.45.54-1.06.69-1.83.15-.78.23-1.75.23-2.91,0-1.27-.07-2.33-.22-3.16s-.37-1.49-.67-1.97-.68-.83-1.13-1.03c-.45-.2-.99-.3-1.62-.3s-1.15.1-1.61.3c-.46.2-.84.54-1.14,1.01-.3.48-.53,1.13-.68,1.97-.15.84-.23,1.9-.23,3.19,0,1.17.08,2.14.24,2.91.16.78.4,1.38.71,1.82.31.44.7.75,1.15.93.45.18.97.28,1.55.28Z"/>
      <path class="st18" d="M83.93,115.62c-.88,0-1.65-.12-2.34-.37s-1.27-.66-1.75-1.23c-.48-.58-.85-1.36-1.11-2.34-.25-.98-.38-2.2-.38-3.66,0-1.55.12-2.85.37-3.89.25-1.04.61-1.87,1.09-2.49.48-.61,1.07-1.05,1.75-1.31.68-.26,1.46-.39,2.34-.39s1.71.13,2.4.39c.69.26,1.27.7,1.74,1.31.47.61.83,1.44,1.07,2.48.25,1.04.37,2.34.37,3.91,0,1.94-.22,3.46-.67,4.56-.45,1.11-1.08,1.89-1.9,2.35-.82.46-1.82.69-2.98.69ZM83.93,113.99c.6,0,1.12-.09,1.58-.28.45-.18.83-.5,1.14-.94.31-.45.54-1.06.69-1.83.15-.78.23-1.75.23-2.91,0-1.27-.07-2.33-.22-3.16s-.37-1.49-.67-1.97-.68-.83-1.13-1.03c-.45-.2-.99-.3-1.62-.3s-1.15.1-1.61.3c-.46.2-.84.54-1.14,1.01-.3.48-.53,1.13-.68,1.97-.15.84-.23,1.9-.23,3.19,0,1.17.08,2.14.24,2.91.16.78.4,1.38.71,1.82.31.44.7.75,1.15.93.45.18.97.28,1.55.28Z"/>
    </g>
  </g>
  <text class="st17" transform="translate(273.33 151.62)"><tspan x="0" y="0">صلاة الفجر</tspan></text>
  <g>
    <rect class="st22" x="27.63" y="133.8" width="68.04" height="24.3" rx="10.61" ry="10.61"/>
    <g>
      <path class="st18" d="M41.98,153.84v-2.95h-7.33v-1.43l4.31-10.83h2.03l-4.4,10.62h5.39v-4.7h1.84v4.7h1.91v1.64h-1.91v2.95h-1.84Z"/>
      <path class="st18" d="M52.02,154.07l-1.73-.53,5.69-12.63v-.62h-7.58v-1.66h9.47v2.4l-5.85,13.04Z"/>
      <path class="st18" d="M61.08,146.47v-2.7h1.96v2.7h-1.96ZM61.08,153.84v-2.7h1.96v2.7h-1.96Z"/>
      <path class="st18" d="M71.03,154.07c-.88,0-1.65-.12-2.34-.37s-1.27-.66-1.75-1.23c-.48-.58-.85-1.36-1.11-2.34-.25-.98-.38-2.2-.38-3.66,0-1.55.12-2.85.37-3.89.25-1.04.61-1.87,1.09-2.49.48-.61,1.07-1.05,1.75-1.31.68-.26,1.46-.39,2.34-.39s1.71.13,2.4.39c.69.26,1.27.7,1.74,1.31.47.61.83,1.44,1.07,2.48.25,1.04.37,2.34.37,3.91,0,1.94-.22,3.46-.67,4.56-.45,1.11-1.08,1.89-1.9,2.35-.82.46-1.82.69-2.98.69ZM71.03,152.44c.6,0,1.12-.09,1.58-.28.45-.18.83-.5,1.14-.94.31-.45.54-1.06.69-1.83.15-.78.23-1.75.23-2.91,0-1.27-.07-2.33-.22-3.16s-.37-1.49-.67-1.97-.68-.83-1.13-1.03c-.45-.2-.99-.3-1.62-.3s-1.15.1-1.61.3c-.46.2-.84.54-1.14,1.01-.3.48-.53,1.13-.68,1.97-.15.84-.23,1.9-.23,3.19,0,1.17.08,2.14.24,2.91.16.78.4,1.38.71,1.82.31.44.7.75,1.15.93.45.18.97.28,1.55.28Z"/>
      <path class="st18" d="M83.93,154.07c-.88,0-1.65-.12-2.34-.37s-1.27-.66-1.75-1.23c-.48-.58-.85-1.36-1.11-2.34-.25-.98-.38-2.2-.38-3.66,0-1.55.12-2.85.37-3.89.25-1.04.61-1.87,1.09-2.49.48-.61,1.07-1.05,1.75-1.31.68-.26,1.46-.39,2.34-.39s1.71.13,2.4.39c.69.26,1.27.7,1.74,1.31.47.61.83,1.44,1.07,2.48.25,1.04.37,2.34.37,3.91,0,1.94-.22,3.46-.67,4.56-.45,1.11-1.08,1.89-1.9,2.35-.82.46-1.82.69-2.98.69ZM83.93,152.44c.6,0,1.12-.09,1.58-.28.45-.18.83-.5,1.14-.94.31-.45.54-1.06.69-1.83.15-.78.23-1.75.23-2.91,0-1.27-.07-2.33-.22-3.16s-.37-1.49-.67-1.97-.68-.83-1.13-1.03c-.45-.2-.99-.3-1.62-.3s-1.15.1-1.61.3c-.46.2-.84.54-1.14,1.01-.3.48-.53,1.13-.68,1.97-.15.84-.23,1.9-.23,3.19,0,1.17.08,2.14.24,2.91.16.78.4,1.38.71,1.82.31.44.7.75,1.15.93.45.18.97.28,1.55.28Z"/>
    </g>
  </g>
  <text class="st17" transform="translate(270 187)"><tspan x="0" y="0">صلاة الظهر</tspan></text>
  <g>
    <rect class="st22" x="27.63" y="169.17" width="68.04" height="24.3" rx="10.61" ry="10.61"/>
    <g>
      <path class="st18" d="M41.98,189.22v-2.95h-7.33v-1.43l4.31-10.83h2.03l-4.4,10.62h5.39v-4.7h1.84v4.7h1.91v1.64h-1.91v2.95h-1.84Z"/>
      <path class="st18" d="M52.02,189.45l-1.73-.53,5.69-12.62v-.62h-7.58v-1.66h9.47v2.4l-5.85,13.04Z"/>
      <path class="st18" d="M61.08,181.84v-2.7h1.96v2.7h-1.96ZM61.08,189.22v-2.7h1.96v2.7h-1.96Z"/>
      <path class="st18" d="M71.03,189.45c-.88,0-1.65-.12-2.34-.37-.68-.25-1.27-.66-1.75-1.23s-.85-1.36-1.11-2.34c-.25-.98-.38-2.2-.38-3.66,0-1.55.12-2.85.37-3.89.25-1.04.61-1.87,1.09-2.49.48-.61,1.07-1.05,1.75-1.31.68-.26,1.46-.39,2.34-.39s1.71.13,2.4.39c.69.26,1.27.7,1.74,1.31.47.62.83,1.44,1.07,2.48.25,1.04.37,2.34.37,3.91,0,1.94-.22,3.46-.67,4.56-.45,1.11-1.08,1.89-1.9,2.35-.82.46-1.82.69-2.98.69ZM71.03,187.81c.6,0,1.12-.09,1.58-.28.45-.18.83-.5,1.14-.95.31-.45.54-1.06.69-1.83.15-.78.23-1.75.23-2.92,0-1.27-.07-2.33-.22-3.16-.15-.83-.37-1.49-.67-1.97-.3-.48-.68-.83-1.13-1.03-.45-.2-.99-.3-1.62-.3s-1.15.1-1.61.3c-.46.2-.84.54-1.14,1.01-.3.48-.53,1.13-.68,1.97-.15.84-.23,1.9-.23,3.19,0,1.17.08,2.14.24,2.91.16.78.4,1.38.71,1.82s.7.75,1.15.93c.45.18.97.28,1.55.28Z"/>
      <path class="st18" d="M83.93,189.45c-.88,0-1.65-.12-2.34-.37-.68-.25-1.27-.66-1.75-1.23s-.85-1.36-1.11-2.34c-.25-.98-.38-2.2-.38-3.66,0-1.55.12-2.85.37-3.89.25-1.04.61-1.87,1.09-2.49.48-.61,1.07-1.05,1.75-1.31.68-.26,1.46-.39,2.34-.39s1.71.13,2.4.39c.69.26,1.27.7,1.74,1.31.47.62.83,1.44,1.07,2.48.25,1.04.37,2.34.37,3.91,0,1.94-.22,3.46-.67,4.56-.45,1.11-1.08,1.89-1.9,2.35-.82.46-1.82.69-2.98.69ZM83.93,187.81c.6,0,1.12-.09,1.58-.28.45-.18.83-.5,1.14-.95.31-.45.54-1.06.69-1.83.15-.78.23-1.75.23-2.92,0-1.27-.07-2.33-.22-3.16-.15-.83-.37-1.49-.67-1.97-.3-.48-.68-.83-1.13-1.03-.45-.2-.99-.3-1.62-.3s-1.15.1-1.61.3c-.46.2-.84.54-1.14,1.01-.3.48-.53,1.13-.68,1.97-.15.84-.23,1.9-.23,3.19,0,1.17.08,2.14.24,2.91.16.78.4,1.38.71,1.82s.7.75,1.15.93c.45.18.97.28,1.55.28Z"/>
    </g>
  </g>
  <text class="st17" transform="translate(269.3 221.86)"><tspan x="0" y="0">صلاة العصر</tspan></text>
  <g>
    <rect class="st22" x="27.63" y="204.03" width="68.04" height="24.3" rx="10.61" ry="10.61"/>
    <g>
      <path class="st18" d="M41.98,224.08v-2.95h-7.33v-1.43l4.31-10.83h2.03l-4.4,10.62h5.39v-4.7h1.84v4.7h1.91v1.64h-1.91v2.95h-1.84Z"/>
      <path class="st18" d="M52.02,224.31l-1.73-.53,5.69-12.62v-.62h-7.58v-1.66h9.47v2.4l-5.85,13.04Z"/>
      <path class="st18" d="M61.08,216.7v-2.7h1.96v2.7h-1.96ZM61.08,224.08v-2.7h1.96v2.7h-1.96Z"/>
      <path class="st18" d="M71.03,224.31c-.88,0-1.65-.12-2.34-.37-.68-.25-1.27-.66-1.75-1.23s-.85-1.36-1.11-2.34c-.25-.98-.38-2.2-.38-3.66,0-1.55.12-2.85.37-3.89.25-1.04.61-1.87,1.09-2.49.48-.61,1.07-1.05,1.75-1.31.68-.26,1.46-.39,2.34-.39s1.71.13,2.4.39c.69.26,1.27.7,1.74,1.31.47.62.83,1.44,1.07,2.48.25,1.04.37,2.34.37,3.91,0,1.94-.22,3.46-.67,4.56-.45,1.11-1.08,1.89-1.9,2.35-.82.46-1.82.69-2.98.69ZM71.03,222.67c.6,0,1.12-.09,1.58-.28.45-.18.83-.5,1.14-.95.31-.45.54-1.06.69-1.83.15-.78.23-1.75.23-2.92,0-1.27-.07-2.33-.22-3.16-.15-.83-.37-1.49-.67-1.97-.3-.48-.68-.83-1.13-1.03-.45-.2-.99-.3-1.62-.3s-1.15.1-1.61.3c-.46.2-.84.54-1.14,1.01-.3.48-.53,1.13-.68,1.97-.15.84-.23,1.9-.23,3.19,0,1.17.08,2.14.24,2.91.16.78.4,1.38.71,1.82s.7.75,1.15.93c.45.18.97.28,1.55.28Z"/>
      <path class="st18" d="M83.93,224.31c-.88,0-1.65-.12-2.34-.37-.68-.25-1.27-.66-1.75-1.23s-.85-1.36-1.11-2.34c-.25-.98-.38-2.2-.38-3.66,0-1.55.12-2.85.37-3.89.25-1.04.61-1.87,1.09-2.49.48-.61,1.07-1.05,1.75-1.31.68-.26,1.46-.39,2.34-.39s1.71.13,2.4.39c.69.26,1.27.7,1.74,1.31.47.62.83,1.44,1.07,2.48.25,1.04.37,2.34.37,3.91,0,1.94-.22,3.46-.67,4.56-.45,1.11-1.08,1.89-1.9,2.35-.82.46-1.82.69-2.98.69ZM83.93,222.67c.6,0,1.12-.09,1.58-.28.45-.18.83-.5,1.14-.95.31-.45.54-1.06.69-1.83.15-.78.23-1.75.23-2.92,0-1.27-.07-2.33-.22-3.16-.15-.83-.37-1.49-.67-1.97-.3-.48-.68-.83-1.13-1.03-.45-.2-.99-.3-1.62-.3s-1.15.1-1.61.3c-.46.2-.84.54-1.14,1.01-.3.48-.53,1.13-.68,1.97-.15.84-.23,1.9-.23,3.19,0,1.17.08,2.14.24,2.91.16.78.4,1.38.71,1.82s.7.75,1.15.93c.45.18.97.28,1.55.28Z"/>
    </g>
  </g>
  <text class="st17" transform="translate(256.81 258.77)"><tspan x="0" y="0">صلاة المغرب</tspan></text>
  <g>
    <rect class="st22" x="27.63" y="240.95" width="68.04" height="24.3" rx="10.61" ry="10.61"/>
    <g>
      <path class="st18" d="M41.98,260.99v-2.95h-7.33v-1.43l4.31-10.83h2.03l-4.4,10.62h5.39v-4.7h1.84v4.7h1.91v1.64h-1.91v2.95h-1.84Z"/>
      <path class="st18" d="M52.02,261.22l-1.73-.53,5.69-12.62v-.62h-7.58v-1.66h9.47v2.4l-5.85,13.04Z"/>
      <path class="st18" d="M61.08,253.61v-2.7h1.96v2.7h-1.96ZM61.08,260.99v-2.7h1.96v2.7h-1.96Z"/>
      <path class="st18" d="M71.03,261.22c-.88,0-1.65-.12-2.34-.37-.68-.25-1.27-.66-1.75-1.23s-.85-1.36-1.11-2.34c-.25-.98-.38-2.2-.38-3.66,0-1.55.12-2.85.37-3.89.25-1.04.61-1.87,1.09-2.49.48-.61,1.07-1.05,1.75-1.31.68-.26,1.46-.39,2.34-.39s1.71.13,2.4.39c.69.26,1.27.7,1.74,1.31.47.62.83,1.44,1.07,2.48.25,1.04.37,2.34.37,3.91,0,1.94-.22,3.46-.67,4.56-.45,1.11-1.08,1.89-1.9,2.35-.82.46-1.82.69-2.98.69ZM71.03,259.58c.6,0,1.12-.09,1.58-.28.45-.18.83-.5,1.14-.95.31-.45.54-1.06.69-1.83.15-.78.23-1.75.23-2.92,0-1.27-.07-2.33-.22-3.16-.15-.83-.37-1.49-.67-1.97-.3-.48-.68-.83-1.13-1.03-.45-.2-.99-.3-1.62-.3s-1.15.1-1.61.3c-.46.2-.84.54-1.14,1.01-.3.48-.53,1.13-.68,1.97-.15.84-.23,1.9-.23,3.19,0,1.17.08,2.14.24,2.91.16.78.4,1.38.71,1.82s.7.75,1.15.93c.45.18.97.28,1.55.28Z"/>
      <path class="st18" d="M83.93,261.22c-.88,0-1.65-.12-2.34-.37-.68-.25-1.27-.66-1.75-1.23s-.85-1.36-1.11-2.34c-.25-.98-.38-2.2-.38-3.66,0-1.55.12-2.85.37-3.89.25-1.04.61-1.87,1.09-2.49.48-.61,1.07-1.05,1.75-1.31.68-.26,1.46-.39,2.34-.39s1.71.13,2.4.39c.69.26,1.27.7,1.74,1.31.47.62.83,1.44,1.07,2.48.25,1.04.37,2.34.37,3.91,0,1.94-.22,3.46-.67,4.56-.45,1.11-1.08,1.89-1.9,2.35-.82.46-1.82.69-2.98.69ZM83.93,259.58c.6,0,1.12-.09,1.58-.28.45-.18.83-.5,1.14-.95.31-.45.54-1.06.69-1.83.15-.78.23-1.75.23-2.92,0-1.27-.07-2.33-.22-3.16-.15-.83-.37-1.49-.67-1.97-.3-.48-.68-.83-1.13-1.03-.45-.2-.99-.3-1.62-.3s-1.15.1-1.61.3c-.46.2-.84.54-1.14,1.01-.3.48-.53,1.13-.68,1.97-.15.84-.23,1.9-.23,3.19,0,1.17.08,2.14.24,2.91.16.78.4,1.38.71,1.82s.7.75,1.15.93c.45.18.97.28,1.55.28Z"/>
    </g>
  </g>
  <text class="st17" transform="translate(257.91 291.07)"><tspan x="0" y="0">صلاة العشاء</tspan></text>
  <g>
    <rect class="st22" x="27.63" y="273.24" width="68.04" height="24.3" rx="10.61" ry="10.61"/>
    <g>
      <path class="st18" d="M41.98,293.28v-2.95h-7.33v-1.43l4.31-10.83h2.03l-4.4,10.62h5.39v-4.7h1.84v4.7h1.91v1.64h-1.91v2.95h-1.84Z"/>
      <path class="st18" d="M52.02,293.51l-1.73-.53,5.69-12.63v-.62h-7.58v-1.66h9.47v2.4l-5.85,13.04Z"/>
      <path class="st18" d="M61.08,285.91v-2.7h1.96v2.7h-1.96ZM61.08,293.28v-2.7h1.96v2.7h-1.96Z"/>
      <path class="st18" d="M71.03,293.51c-.88,0-1.65-.12-2.34-.37-.68-.25-1.27-.66-1.75-1.23-.48-.58-.85-1.36-1.11-2.34-.25-.98-.38-2.2-.38-3.66,0-1.55.12-2.85.37-3.89.25-1.04.61-1.87,1.09-2.49s1.07-1.05,1.75-1.31c.68-.26,1.46-.39,2.34-.39s1.71.13,2.4.39c.69.26,1.27.7,1.74,1.31.47.61.83,1.44,1.07,2.48.25,1.04.37,2.34.37,3.91,0,1.94-.22,3.46-.67,4.56s-1.08,1.89-1.9,2.35c-.82.46-1.82.69-2.98.69ZM71.03,291.88c.6,0,1.12-.09,1.58-.28.45-.18.83-.5,1.14-.94s.54-1.06.69-1.83c.15-.78.23-1.75.23-2.91,0-1.27-.07-2.33-.22-3.16-.15-.83-.37-1.49-.67-1.97-.3-.48-.68-.83-1.13-1.03-.45-.2-.99-.3-1.62-.3s-1.15.1-1.61.3c-.46.2-.84.54-1.14,1.01s-.53,1.13-.68,1.97c-.15.84-.23,1.9-.23,3.19,0,1.17.08,2.14.24,2.92.16.78.4,1.38.71,1.82.31.44.7.75,1.15.93.45.18.97.28,1.55.28Z"/>
      <path class="st18" d="M83.93,293.51c-.88,0-1.65-.12-2.34-.37-.68-.25-1.27-.66-1.75-1.23-.48-.58-.85-1.36-1.11-2.34-.25-.98-.38-2.2-.38-3.66,0-1.55.12-2.85.37-3.89.25-1.04.61-1.87,1.09-2.49s1.07-1.05,1.75-1.31c.68-.26,1.46-.39,2.34-.39s1.71.13,2.4.39c.69.26,1.27.7,1.74,1.31.47.61.83,1.44,1.07,2.48.25,1.04.37,2.34.37,3.91,0,1.94-.22,3.46-.67,4.56s-1.08,1.89-1.9,2.35c-.82.46-1.82.69-2.98.69ZM83.93,291.88c.6,0,1.12-.09,1.58-.28.45-.18.83-.5,1.14-.94s.54-1.06.69-1.83c.15-.78.23-1.75.23-2.91,0-1.27-.07-2.33-.22-3.16-.15-.83-.37-1.49-.67-1.97-.3-.48-.68-.83-1.13-1.03-.45-.2-.99-.3-1.62-.3s-1.15.1-1.61.3c-.46.2-.84.54-1.14,1.01s-.53,1.13-.68,1.97c-.15.84-.23,1.9-.23,3.19,0,1.17.08,2.14.24,2.92.16.78.4,1.38.71,1.82.31.44.7.75,1.15.93.45.18.97.28,1.55.28Z"/>
    </g>
  </g>
</svg>