<?xml version="1.0" encoding="UTF-8"?>
<svg id="Layer_1" xmlns="http://www.w3.org/2000/svg" xmlns:xlink="http://www.w3.org/1999/xlink" version="1.1" viewBox="0 0 390 170">
  <!-- Generator: Adobe Illustrator 30.2.1, SVG Export Plug-In . SVG Version: 2.1.1 Build 1)  -->
  <defs>
    <style>
      .st0 {
        fill: none;
      }

      .st1 {
        fill: url(#linear-gradient2);
      }

      .st2 {
        fill: url(#linear-gradient1);
      }

      .st3 {
        fill: url(#linear-gradient9);
      }

      .st4 {
        fill: url(#linear-gradient3);
      }

      .st5 {
        fill: url(#linear-gradient6);
      }

      .st6 {
        fill: url(#linear-gradient8);
      }

      .st7 {
        fill: url(#linear-gradient7);
      }

      .st8 {
        fill: url(#linear-gradient5);
      }

      .st9 {
        fill: url(#linear-gradient4);
      }

      .st10 {
        font-family: Cairo-SemiBold, Cairo;
        font-size: 12.12px;
        font-weight: 600;
      }

      .st11 {
        fill: url(#linear-gradient13);
      }

      .st12 {
        fill: url(#linear-gradient12);
      }

      .st13 {
        fill: url(#linear-gradient11);
      }

      .st14 {
        fill: url(#linear-gradient10);
      }

      .st15 {
        fill: url(#linear-gradient);
      }

      .st16 {
        isolation: isolate;
      }

      .st17 {
        opacity: .09;
      }
    </style>
    <linearGradient id="linear-gradient" x1="234" y1="111.76" x2="245.33" y2="111.76" gradientUnits="userSpaceOnUse">
      <stop offset="0" stop-color="#0f987f"/>
      <stop offset="1" stop-color="#2ab450"/>
    </linearGradient>
    <linearGradient id="linear-gradient1" x1="244.64" y1="115.85" x2="256.33" y2="115.85" xlink:href="#linear-gradient"/>
    <linearGradient id="linear-gradient2" x1="257.81" y1="114.83" x2="267.54" y2="114.83" xlink:href="#linear-gradient"/>
    <linearGradient id="linear-gradient3" x1="269.78" y1="111.7" x2="275.1" y2="111.7" xlink:href="#linear-gradient"/>
    <linearGradient id="linear-gradient4" x1="274.41" y1="112.57" x2="285.49" y2="112.57" xlink:href="#linear-gradient"/>
    <linearGradient id="linear-gradient5" x1="284.8" y1="111.7" x2="291.7" y2="111.7" xlink:href="#linear-gradient"/>
    <linearGradient id="linear-gradient6" x1="293.05" y1="111.7" x2="295.86" y2="111.7" xlink:href="#linear-gradient"/>
    <linearGradient id="linear-gradient7" x1="302.32" y1="113.2" x2="310.73" y2="113.2" xlink:href="#linear-gradient"/>
    <linearGradient id="linear-gradient8" x1="311.82" y1="111.7" x2="326.46" y2="111.7" xlink:href="#linear-gradient"/>
    <linearGradient id="linear-gradient9" x1="325.78" y1="115.8" x2="347.75" y2="115.8" xlink:href="#linear-gradient"/>
    <linearGradient id="linear-gradient10" x1="347.07" y1="111.7" x2="353.97" y2="111.7" xlink:href="#linear-gradient"/>
    <linearGradient id="linear-gradient11" x1="355.32" y1="111.7" x2="358.12" y2="111.7" xlink:href="#linear-gradient"/>
    <linearGradient id="linear-gradient12" x1="267.8" y1="107.23" x2="322.56" y2="107.23" gradientTransform="translate(0 172) scale(1 -1)" xlink:href="#linear-gradient"/>
    <linearGradient id="linear-gradient13" x1="-2396.81" y1="162.08" x2="-2391.48" y2="167.03" gradientTransform="translate(12553.64 -781.48) scale(5.12)" gradientUnits="userSpaceOnUse">
      <stop offset="0" stop-color="#f0ba68"/>
      <stop offset="1" stop-color="#da8040"/>
    </linearGradient>
  </defs>
  <rect class="st17" x="10" y="10" width="370" height="150" rx="14" ry="14"/>
  <rect class="st0" x="10.5" y="10.5" width="369" height="149" rx="14" ry="14"/>
  <g>
    <path class="st15" d="M234,116.15c0-1.94,1.25-3.72,4.35-5.27l2.11-1.15,1.63-2.75h.69v8.33c0,1.43.53,1.83,2.55,1.83v3.36l-.69.69c-2.78.03-3.57-1.27-4.05-5.22l-.74,2.93c-.69.38-1.5.53-2.39.53-2.09,0-3.46-1.15-3.46-3.29ZM237.67,115.39c.99,0,2.11-.13,2.83-.36l-.31-2.7-3,.89c-1.32.36-1.88.84-1.88,1.3,0,.59.79.87,2.37.87ZM239.04,102.33l1.71,1.73,1.76-1.73,1.96,1.99-1.96,1.96-1.76-1.71-1.71,1.71-2.01-1.96,2.01-1.99Z"/>
    <path class="st2" d="M245.33,117.15c1.91,0,2.55-.56,3.49-2.47l.64-1.3c1.07-2.16,1.88-2.88,3.11-2.88,2.04,0,3.77,2.24,3.77,4.97,0,1.76-.76,3.77-2.16,5.53-1.66-.25-4.05-.97-6.21-2.16-.81,1.66-1.81,2.37-3.31,2.37v-3.36l.69-.69ZM249.36,115.26c1.96.92,4.33,1.58,6.11,1.94-.59-1.4-2.75-3-4.41-3-.74,0-1.27.38-1.71,1.07Z"/>
    <path class="st1" d="M257.81,118.29c0-.94.28-2.01.53-2.85h.66c0,1.71.59,2.14,3.18,2.14,2.01,0,3.49-.28,4.43-.66-.69-1.2-2.42-2.72-5.78-5.22l1.66-3.67h.66c3.13,3.13,4.38,5.25,4.38,7.49,0,1.5-.15,2.75-.61,4.86-1.15.74-3.03,1.25-5.17,1.25-2.83,0-3.95-1.32-3.95-3.34Z"/>
    <path class="st4" d="M270.21,115.31l-.43-9.55,2.11-3.57h.69v13.11c0,1.43.53,1.83,2.52,1.83v3.36l-.66.69c-2.95.03-4-1.43-4.23-5.88Z"/>
    <path class="st9" d="M275.1,117.15c.59,0,1.12,0,1.63-.03-.18-.53-.28-1.12-.28-1.76,0-2.98,2.14-6.11,4.23-6.11,1.88,0,3.49,2.32,3.49,4.89,0,1.02-.33,2.01-.92,2.9.71.08,1.48.1,2.24.1v3.36l-.69.69c-2.16,0-3.95-.38-5.32-1.07-1.5.66-3.23,1.07-5.07,1.07v-3.36l.69-.69ZM278.72,103.95l1.71,1.73,1.76-1.73,1.96,1.99-1.96,1.96-1.76-1.71-1.71,1.71-2.01-1.96,2.01-1.99ZM281.19,116.74c1.38-.28,2.04-.71,2.04-1.27,0-1.07-1.88-2.16-3.59-2.16-1.27,0-2.27.51-2.27,1.22,0,.92,1.53,1.73,3.82,2.22Z"/>
    <path class="st8" d="M285.49,117.15c.69,0,1.4-.08,2.14-.23l-.38-9.63c-1.17-1.91-.51-3.85,1.88-5.09h.69v2.16l1.88,2.62-1.88,1.38v7.03c0,1.71-.36,3.57-.79,4.89-1.25.61-2.6.92-4.23.92v-3.36l.69-.69Z"/>
    <path class="st5" d="M293.05,105.76l2.11-3.57h.69v14.01l-1.5,4.99h-.69l-.61-15.43Z"/>
    <path class="st7" d="M302.32,117.48c0-1.55.59-3.08,1.88-4.63v-3.34c5.19,1.6,6.52,3.08,6.52,6.93,0,3.36-1.5,5.19-4.33,5.19-2.47,0-4.07-1.63-4.07-4.15ZM304.84,104.77l1.71,1.73,1.76-1.73,1.96,1.99-1.96,1.96-1.76-1.71-1.71,1.71-2.01-1.96,2.01-1.99ZM306.55,117.58c1.96,0,3.23-.46,3.23-1.22,0-.71-1.48-1.58-4.41-2.42-1.38.97-2.11,1.83-2.11,2.44,0,.76,1.17,1.2,3.28,1.2Z"/>
    <path class="st6" d="M311.82,120.51l6.06-3.03c.2-.1.41-.2.59-.31-.18-1.76-.94-2.8-2.93-4.38l-1.3-1.02h-2.42v-5.27l.51-.48,3.26,2.65c2.95,2.34,3.95,4.07,3.92,7.87,1.6-1.07,2.01-2.19,1.94-4.23l-.33-6.54,2.11-3.57h.69v13.11c0,1.43.53,1.83,2.55,1.83v3.36l-.69.69c-2.75.03-4.15-1.22-4.15-5.07v-.69h-.1c-.53,2.06-1.3,3.87-2.44,5.76h-7.26v-.69Z"/>
    <path class="st3" d="M326.46,117.15c2.22,0,3.11-.46,4.07-1.88l.64-.92.59.33-.76,1.45-.05.1c.66.43,1.3.74,1.99.97,3.72-5.25,5.86-7.23,8.63-7.23,2.44,0,4.23,1.78,4.23,4.35,0,.74-.13,1.71-.38,2.78.69.03,1.45.05,2.34.05v3.44l-.69.61c-1.83,0-3.36-.23-4.79-.69-2.11.71-4.63,1.12-6.93,1.12s-4.43-.71-6.21-2.16c-.94,1.25-1.94,1.73-3.36,1.73v-3.36l.69-.69ZM333.82,117.43c.56.1,1.2.15,1.86.15,3.18,0,6.65-.59,8.99-1.48-.94-1.2-2.78-2.09-4.51-2.09-2.14,0-3.97.97-6.34,3.41Z"/>
    <path class="st14" d="M347.75,117.15c.69,0,1.4-.08,2.14-.23l-.38-9.63c-1.17-1.91-.51-3.85,1.88-5.09h.69v2.16l1.88,2.62-1.88,1.38v7.03c0,1.71-.36,3.57-.79,4.89-1.25.61-2.6.92-4.23.92v-3.36l.69-.69Z"/>
    <path class="st13" d="M355.32,105.76l2.11-3.57h.69v14.01l-1.5,4.99h-.69l-.61-15.43Z"/>
  </g>
  <g id="Logo">
    <path class="st12" d="M296.84,89.2c-.8.8-2.16,1.14-2.97.32l-21.17-21.16c-6.31-6.38-6.5-16.55-.66-23.13,5.89-6.63,15.94-7.67,23.15-2.08,7.13-5.55,17.11-4.57,23.01,1.93s5.85,16.68-.4,23.15l-20.97,20.97Z"/>
    <path class="st11" d="M302.64,49.65h-.21c-4.71,0-8.53,3.82-8.53,8.53s3.82,8.53,8.53,8.53c2.51,0,4.76-1.08,6.32-2.8-1.32,5.94-6.62,10.39-12.96,10.39-7.33,0-13.27-5.94-13.27-13.27s5.94-13.27,13.27-13.27c2.5,0,4.85.69,6.84,1.9h0Z"/>
  </g>
  <g class="st16">
    <g>
      <path d="M42.6,93.07c-1.63,0-3.08-.23-4.35-.69-1.27-.46-2.36-1.22-3.26-2.29-.9-1.07-1.59-2.52-2.06-4.35-.47-1.83-.71-4.1-.71-6.81,0-2.88.23-5.3.69-7.24.46-1.94,1.14-3.48,2.04-4.63.9-1.14,1.99-1.96,3.26-2.44,1.27-.49,2.72-.73,4.35-.73s3.17.24,4.46.73c1.29.49,2.36,1.3,3.23,2.44.87,1.14,1.54,2.68,1.99,4.61.46,1.93.69,4.35.69,7.26,0,3.6-.41,6.43-1.24,8.48-.83,2.06-2.01,3.51-3.53,4.37-1.53.86-3.38,1.29-5.55,1.29ZM42.6,90.03c1.11,0,2.09-.17,2.94-.51.84-.34,1.55-.93,2.12-1.76.57-.83,1-1.96,1.29-3.41.29-1.44.43-3.25.43-5.42,0-2.37-.14-4.33-.41-5.87-.27-1.54-.69-2.76-1.24-3.66-.56-.9-1.26-1.54-2.1-1.91-.84-.37-1.85-.56-3.02-.56s-2.14.19-3,.56c-.86.37-1.56,1-2.12,1.89-.56.89-.98,2.11-1.26,3.66-.29,1.56-.43,3.54-.43,5.93,0,2.17.15,3.98.45,5.42.3,1.44.74,2.57,1.33,3.38.58.81,1.3,1.39,2.14,1.74.84.34,1.81.51,2.89.51Z"/>
      <path d="M66.6,93.07c-1.63,0-3.08-.23-4.35-.69-1.27-.46-2.36-1.22-3.26-2.29-.9-1.07-1.59-2.52-2.06-4.35-.47-1.83-.71-4.1-.71-6.81,0-2.88.23-5.3.69-7.24.46-1.94,1.14-3.48,2.04-4.63.9-1.14,1.99-1.96,3.26-2.44,1.27-.49,2.72-.73,4.35-.73s3.17.24,4.46.73c1.29.49,2.36,1.3,3.23,2.44.87,1.14,1.54,2.68,1.99,4.61.46,1.93.69,4.35.69,7.26,0,3.6-.41,6.43-1.24,8.48-.83,2.06-2.01,3.51-3.53,4.37-1.53.86-3.38,1.29-5.55,1.29ZM66.6,90.03c1.11,0,2.09-.17,2.94-.51.84-.34,1.55-.93,2.12-1.76.57-.83,1-1.96,1.29-3.41.29-1.44.43-3.25.43-5.42,0-2.37-.14-4.33-.41-5.87-.27-1.54-.69-2.76-1.24-3.66-.56-.9-1.26-1.54-2.1-1.91-.84-.37-1.85-.56-3.02-.56s-2.14.19-3,.56c-.86.37-1.56,1-2.12,1.89-.56.89-.98,2.11-1.26,3.66-.29,1.56-.43,3.54-.43,5.93,0,2.17.15,3.98.45,5.42.3,1.44.74,2.57,1.33,3.38.58.81,1.3,1.39,2.14,1.74.84.34,1.81.51,2.89.51Z"/>
      <path d="M81.46,78.93v-5.01h3.64v5.01h-3.64ZM81.46,92.64v-5.01h3.64v5.01h-3.64Z"/>
      <path d="M103.32,92.64v-5.48h-13.62v-2.66l8.01-20.14h3.77l-8.18,19.75h10.03v-8.74h3.43v8.74h3.56v3.04h-3.56v5.48h-3.43Z"/>
      <path d="M122,93.07l-3.21-.99,10.58-23.48v-1.16h-14.1v-3.08h17.61v4.46l-10.88,24.25Z"/>
      <path d="M138.83,78.93v-5.01h3.64v5.01h-3.64ZM138.83,92.64v-5.01h3.64v5.01h-3.64Z"/>
      <path d="M157.34,93.07c-1.63,0-3.08-.23-4.35-.69-1.27-.46-2.36-1.22-3.26-2.29-.9-1.07-1.58-2.52-2.06-4.35-.47-1.83-.71-4.1-.71-6.81,0-2.88.23-5.3.69-7.24.46-1.94,1.14-3.48,2.04-4.63.9-1.14,1.99-1.96,3.26-2.44,1.27-.49,2.72-.73,4.35-.73s3.17.24,4.46.73c1.29.49,2.36,1.3,3.23,2.44s1.54,2.68,1.99,4.61c.46,1.93.69,4.35.69,7.26,0,3.6-.41,6.43-1.24,8.48-.83,2.06-2.01,3.51-3.54,4.37-1.53.86-3.38,1.29-5.55,1.29ZM157.34,90.03c1.11,0,2.09-.17,2.93-.51.84-.34,1.55-.93,2.12-1.76.57-.83,1-1.96,1.29-3.41.29-1.44.43-3.25.43-5.42,0-2.37-.14-4.33-.41-5.87s-.69-2.76-1.24-3.66c-.56-.9-1.26-1.54-2.1-1.91-.84-.37-1.85-.56-3.02-.56s-2.14.19-3,.56c-.86.37-1.56,1-2.12,1.89-.56.89-.98,2.11-1.26,3.66-.29,1.56-.43,3.54-.43,5.93,0,2.17.15,3.98.45,5.42.3,1.44.74,2.57,1.33,3.38.58.81,1.3,1.39,2.14,1.74s1.81.51,2.89.51Z"/>
      <path d="M181.34,93.07c-1.63,0-3.08-.23-4.35-.69-1.27-.46-2.36-1.22-3.26-2.29-.9-1.07-1.58-2.52-2.06-4.35-.47-1.83-.71-4.1-.71-6.81,0-2.88.23-5.3.69-7.24.46-1.94,1.14-3.48,2.04-4.63.9-1.14,1.99-1.96,3.26-2.44,1.27-.49,2.72-.73,4.35-.73s3.17.24,4.46.73c1.29.49,2.36,1.3,3.23,2.44s1.54,2.68,1.99,4.61c.46,1.93.69,4.35.69,7.26,0,3.6-.41,6.43-1.24,8.48-.83,2.06-2.01,3.51-3.54,4.37-1.53.86-3.38,1.29-5.55,1.29ZM181.34,90.03c1.11,0,2.09-.17,2.93-.51.84-.34,1.55-.93,2.12-1.76.57-.83,1-1.96,1.29-3.41.29-1.44.43-3.25.43-5.42,0-2.37-.14-4.33-.41-5.87s-.69-2.76-1.24-3.66c-.56-.9-1.26-1.54-2.1-1.91-.84-.37-1.85-.56-3.02-.56s-2.14.19-3,.56c-.86.37-1.56,1-2.12,1.89-.56.89-.98,2.11-1.26,3.66-.29,1.56-.43,3.54-.43,5.93,0,2.17.15,3.98.45,5.42.3,1.44.74,2.57,1.33,3.38.58.81,1.3,1.39,2.14,1.74s1.81.51,2.89.51Z"/>
    </g>
  </g>
  <text class="st10" transform="translate(34.36 110.47)"><tspan x="0" y="0">الوقت المتبقي على صلاة الفجر</tspan></text>
</svg>