<?xml version="1.0" encoding="UTF-8"?>
<svg id="Layer_1" xmlns="http://www.w3.org/2000/svg" version="1.1" viewBox="0 0 40 50">
  <!-- Generator: Adobe Illustrator 30.2.1, SVG Export Plug-In . SVG Version: 2.1.1 Build 1)  -->
  <defs>
    <style>
      .st0 {
        fill: #f0ba68;
      }
    </style>
  </defs>
  <path class="st0" d="M34.65,12.47c-3.75-4.14-10.1-4.76-14.64-1.23-4.59-3.55-10.98-2.89-14.73,1.33-3.72,4.19-3.6,10.66.42,14.72l13.47,13.47c.52.52,1.38.3,1.89-.21h0s13.34-13.35,13.34-13.35c3.97-4.12,4-10.59.25-14.73ZM20.4,31.07c-4.66,0-8.45-3.78-8.45-8.45s3.78-8.45,8.45-8.45c1.59,0,3.09.44,4.36,1.21h-.13c-3,0-5.43,2.43-5.43,5.43s2.43,5.43,5.43,5.43c1.6,0,3.03-.69,4.02-1.78-.84,3.78-4.21,6.61-8.25,6.61Z"/>
</svg>