<?xml version="1.0" encoding="UTF-8"?>
<svg id="Layer_1" xmlns="http://www.w3.org/2000/svg" version="1.1" viewBox="0 0 300 300">
  <!-- Generator: Adobe Illustrator 30.2.1, SVG Export Plug-In . SVG Version: 2.1.1 Build 1)  -->
  <defs>
    <style>
      .st0, .st1 {
        fill: #222;
      }

      .st0, .st1, .st2, .st3, .st4 {
        stroke: #e5bb53;
        stroke-miterlimit: 10;
      }

      .st1 {
        opacity: .85;
      }
      .st2 {
        fill: #fff;
      }

      .st3 {
        fill: #181818;
        opacity: .92;
      }

      .st4 {
        fill: #e5bb53;
      }
    </style>
  </defs>
  <polygon class="st0" points="150 30 213.36 61.68 150 93.36 86.64 61.68 150 30"/>
  <polygon class="st2" points="86.64 61.68 150 93.36 150 188.39 86.64 156.71 86.64 61.68"/>
  <polygon class="st2" points="150 93.36 213.36 61.68 213.36 156.71 150 188.39 150 93.36"/>
  <polygon class="st1" points="86.64 61.68 150 93.36 150 188.39 86.64 156.71 86.64 61.68"/>
  <polygon class="st3" points="150 93.36 213.36 61.68 213.36 156.71 150 188.39 150 93.36"/>
  <polygon class="st4" points="150 93.36 213.36 61.68 213.36 77.52 150 109.2 150 93.36"/>
  <polygon class="st4" points="150 93.36 150 109.2 86.64 77.52 86.64 61.68 150 93.36"/>
</svg>