<?xml version="1.0" encoding="UTF-8"?>
<svg id="Layer_1" xmlns="http://www.w3.org/2000/svg" version="1.1" viewBox="0 0 300 300">
  <!-- Generator: Adobe Illustrator 30.2.1, SVG Export Plug-In . SVG Version: 2.1.1 Build 1)  -->
  <defs>
    <style>
      .st0, .st1, .st2, .st3, .st4, .st5, .st6 {
        stroke: #e5bb53;
        stroke-miterlimit: 10;
      }

      .st1 {
        fill: #ccc;
      }

      .st2 {
        fill: #fbb03b;
      }

      .st3 {
        fill: #a67c52;
      }

      .st7 {
        opacity: .1;
      }

      .st4 {
        fill: #b3b3b3;
      }

      .st5 {
        fill: #c69c6d;
      }

      .st6 {
        fill: #4d4d4d;
      }
    </style>
  </defs>
  <g id="Layer_2">
    <path class="st1" d="M221.31,49.74l-.09,20.64-72.1,20.55-71.19-26.84.07-14.75,71.69-17.56,71.62,17.95Z"/>
    <path class="st4" d="M221.31,60.49l-.09,20.64-72.1,20.55-71.19-26.84.07-14.75,71.69-17.56,71.62,17.95Z"/>
    <path class="st1" d="M149.12,90.94l.27-.07v.18l-.27-.11Z"/>
    <path class="st1" d="M148.77,90.81l.36.13-.36.11v-.23Z"/>
    <path class="st6" d="M221.31,49.56v107.79l-71.67,26.64-71.65-26.64V49.56l71.33,17.85,71.99-17.85Z"/>
    <path class="st5" d="M221.31,124.82v32.54l-71.67,26.64-71.65-26.64v-32.54l71.33,24.98,71.99-24.98Z"/>
    <path class="st2" d="M184.85,113.05v57.89l-27.61,10.39-.14-59.09,27.75-9.19Z"/>
    <path class="st3" d="M121.91,162.05l9.62,3.37v6.41l-9.62-3.64v-6.15Z"/>
    <path class="st3" d="M128.27,155.82l9.62,3.37v6.4l-9.62-3.64v-6.13Z"/>
    <path class="st3" d="M116.53,151.57l9.62,3.37v6.4l-9.62-3.64v-6.13Z"/>
    <g>
      <path class="st2" d="M86.84,84.41l-8.85-2.42v-5.64l8.85,2.44v5.63Z"/>
      <path class="st2" d="M212.16,78.86l9.16-2.49v5.64l-9.16,2.49v-5.64Z"/>
      <path class="st2" d="M205.83,86.22l-40.58,11.02v-5.61l40.6-11.06-.02,5.64Z"/>
      <path class="st2" d="M158.62,99.03l-9.3,2.53-8.87-2.44v-5.59l8.87,2.44,9.3-2.53v5.59Z"/>
      <path class="st2" d="M134.97,97.62l-43.18-11.84-.04-5.64,43.22,11.9v5.59Z"/>
    </g>
    <path class="st3" d="M87.86,140.55l9.62,3.37v6.41l-9.62-3.64v-6.15Z"/>
    <path class="st3" d="M94.22,134.31l9.62,3.37v6.4l-9.62-3.64v-6.13Z"/>
    <path class="st3" d="M82.49,130.07l9.62,3.37v6.4l-9.62-3.64v-6.13Z"/>
    <path class="st2" d="M221.31,62.04v7.44l-71.99,19.55-71.33-19.57v-7.44l71.33,19.62,71.99-19.6Z"/>
    <g class="st7">
      <path class="st0" d="M149.64,184l-71.65-26.64V49.56l71.33,17.85.32,116.59Z"/>
    </g>
    <path class="st3" d="M213.14,140.55l-9.62,3.37v6.41l9.62-3.64v-6.15Z"/>
    <path class="st3" d="M206.78,134.31l-9.62,3.37v6.4l9.62-3.64v-6.13Z"/>
    <path class="st3" d="M218.52,130.07l-9.62,3.37v6.4l9.62-3.64v-6.13Z"/>
  </g>
</svg>