<?xml version="1.0" encoding="UTF-8"?>
<svg id="Layer_1" xmlns="http://www.w3.org/2000/svg" version="1.1" viewBox="0 0 300 300">
  <!-- Generator: Adobe Illustrator 30.2.1, SVG Export Plug-In . SVG Version: 2.1.1 Build 1)  -->
  <defs>
    <style>
      .st0 {
        fill: #bdc3c7;
      }

      .st0, .st1, .st2, .st3, .st4, .st5, .st6 {
        stroke: #e5bb53;
        stroke-miterlimit: 10;
      }

      .st1 {
        fill: #262626;
      }

      .st2 {
        fill: #95a5a6;
      }

      .st3 {
        fill: #ecf0f1;
      }

      .st4 {
        fill: #f1c40f;
      }

      .st5 {
        fill: #424344;
      }

      .st6 {
        fill: #f39c12;
      }
    </style>
  </defs>
  <g id="Kaaba">
    <path class="st3" d="M209.56,67.8l-58.88-26.98-58.88,26.98,58.88,26.98,58.88-26.98Z"/>
    <path class="st5" d="M151.67,31.25c-.74-.25-1.72-.25-2.45.25-.49.25-.98,1.23-.98,1.96v4.91c0,.98.49,1.72,1.47,2.21l66.23,30.66,3.43-8.34c0-.98-.49-1.96-1.47-2.21l-66.23-29.44Z"/>
    <path class="st0" d="M151.67,36.15c-.74-.25-1.72-.25-2.45.25-.49.25-.98,1.23-.98,1.96v2.45c0,.98.49,1.72,1.47,2.21l66.23,30.66,1.96-8.1-66.23-29.44Z"/>
    <path class="st1" d="M149.71,31.25c.25-.25.74-.25.98-.25v10.06l-65.25,30.17-3.43-8.34c0-.98.49-1.96,1.47-2.21l66.23-29.44Z"/>
    <path class="st2" d="M149.71,36.15c.25-.25.74-.25.98-.25v7.6l-65.25,30.17-1.96-8.1,66.23-29.44Z"/>
    <path class="st5" d="M85.43,60.68c-.74-.25-1.72-.25-2.45.25-.49.25-.98,1.23-.98,1.96v91.99c0,.98.49,1.72,1.47,2.21l66.23,30.66c.74.25,1.72.25,2.45-.25s1.23-1.23,1.23-1.96v-93.22c0-.98-.49-1.96-1.47-2.21l-66.48-29.44Z"/>
    <path class="st1" d="M215.94,60.68c.74-.25,1.72-.25,2.45.25s1.23,1.23,1.23,1.96v91.99c0,.98-.49,1.72-1.47,2.21l-66.23,30.66c-.49.25-.98.25-1.23.25v-98.37l65.25-28.95Z"/>
    <path class="st6" d="M152.65,121.27c-1.23.49-2.7.49-3.93,0l-.49-.25v-10.79l2.45.98,68.69-30.42v10.79l-66.73,29.68ZM209.56,101.4v6.62l9.81-4.42v-6.62l-9.81,4.42ZM148.23,133.05l1.47.74c.74.25,1.47.25,1.96,0l8.83-3.92v-6.62l-9.81,4.42-2.45-.98v6.38ZM194.84,114.41v-6.62l-19.62,8.83v6.62l19.62-8.83ZM170.31,118.82l-4.91,2.21v6.62l4.91-2.21v-6.62ZM204.66,109.99v-6.62l-4.91,2.21v6.62l4.91-2.21Z"/>
    <path class="st4" d="M148.73,121.27l-66.73-29.68v-10.79l68.69,30.42v10.55c-.74,0-1.47-.25-1.96-.49ZM140.88,122.99v6.62l8.83,3.92c.25.25.74.25.98.25v-6.38l-9.81-4.42ZM91.81,107.78v-6.62l-9.81-4.42v6.62l9.81,4.42ZM106.53,114.41l19.62,8.83v-6.38h.25l-19.87-9.08v6.62ZM135.97,127.41v-6.62l-4.91-2.21v6.62l4.91,2.21ZM101.63,112.2v-6.62l-4.91-2.21v6.62l4.91,2.21Z"/>
  </g>
</svg>