<?xml version="1.0" encoding="UTF-8"?>
<svg id="Layer_1" xmlns="http://www.w3.org/2000/svg" xmlns:xlink="http://www.w3.org/1999/xlink" version="1.1" viewBox="0 0 300 300">
  <!-- Generator: Adobe Illustrator 30.2.1, SVG Export Plug-In . SVG Version: 2.1.1 Build 1)  -->
  <defs>
    <style>
      .st0 {
        fill: url(#linear-gradient1);
      }

      .st1 {
        fill: url(#Foliage_15);
        stroke: #fff;
        stroke-width: 2px;
      }
      .st3 {
        fill: #fff;
        font-family: Helvetica-Bold, Helvetica;
        font-size: 24px;
        font-weight: 700;
      }

      .st4 {
        fill: url(#linear-gradient);
        opacity: .11;
      }

      .st7, .st6 {
        fill: #848484;
      }

      .st8 {
        stroke-width: 1.2px;
      }

      .st8, .st9 {
        fill: none;
        stroke: #4c4c4c;
        stroke-miterlimit: 10;
      }

      .st9 {
        stroke-width: .84px;
      }

      .st5 {
        fill: url(#linear-gradient2);
      }
      .st10 {
        opacity: .39;
      }
    </style>
    <linearGradient id="Foliage_15" data-name="Foliage 15" x1="10" y1="152" x2="290" y2="152" gradientTransform="translate(0 302) scale(1 -1)" gradientUnits="userSpaceOnUse">
      <stop offset="0" stop-color="#41837e"/>
      <stop offset=".52" stop-color="#007169"/>
      <stop offset="1" stop-color="#00473d"/>
    </linearGradient>
    <linearGradient id="linear-gradient" x1="644.78" y1="757" x2="921.5" y2="757" gradientTransform="translate(-938.7 130.12) rotate(45) scale(1 -1)" gradientUnits="userSpaceOnUse">
      <stop offset="0" stop-color="#fff"/>
      <stop offset="1" stop-color="#000"/>
    </linearGradient>
    <linearGradient id="linear-gradient1" x1="672.64" y1="498.08" x2="687.8" y2="498.08" gradientTransform="translate(-548.09 400.32) rotate(22.45) scale(1 -1)" gradientUnits="userSpaceOnUse">
      <stop offset="0" stop-color="#737373"/>
      <stop offset=".58" stop-color="#e3e3e3"/>
      <stop offset=".78" stop-color="#c5c5c5"/>
      <stop offset="1" stop-color="#a8a8a8"/>
    </linearGradient>
    <linearGradient id="linear-gradient2" x1="674.14" y1="498.08" x2="686.3" y2="498.08" gradientTransform="translate(-548.09 400.32) rotate(22.45) scale(1 -1)" gradientUnits="userSpaceOnUse">
      <stop offset="0" stop-color="#737373"/>
      <stop offset=".58" stop-color="#e3e3e3"/>
      <stop offset=".78" stop-color="#c5c5c5"/>
      <stop offset="1" stop-color="#a8a8a8"/>
    </linearGradient>
  </defs>
  <g class="st2">
    <g id="Layer_11" data-name="Layer_1">
      <circle class="st1" cx="150" cy="150" r="140"/>
      <circle class="st4" cx="150.34" cy="148.6" r="138.36"/>
      <g class="st2">
        <text class="st3" transform="translate(141.33 40)"><tspan x="0" y="0">N</tspan></text>
      </g>
      <g class="st2">
        <text class="st3" transform="translate(142 275)"><tspan x="0" y="0">S</tspan></text>
      </g>
      <g class="st2">
        <text class="st3" transform="translate(267 158)"><tspan x="0" y="0">E</tspan></text>
      </g>
      <g class="st2">
        <text class="st3" transform="translate(13.67 158)"><tspan x="0" y="0">W</tspan></text>
      </g>
      <g class="st10">
        <g>
          <path class="st9" d="M233.97,184.56c-19.32,46.77-72.9,69.03-119.68,49.7-46.78-19.32-69.03-72.91-49.7-119.68,19.32-46.77,72.91-69.02,119.68-49.7,46.77,19.32,69.03,72.91,49.7,119.68h0Z"/>
          <path class="st9" d="M228.73,182.39c-18.13,43.88-68.4,64.75-112.28,46.63-43.88-18.13-64.75-68.4-46.63-112.28,18.13-43.88,68.4-64.75,112.28-46.63,43.88,18.13,64.75,68.39,46.63,112.27h0Z"/>
          <path class="st7" d="M220.64,91.24l-4.74,3.52s10.81,15.21,13.74,25.62l5.07-2.73s-1.2-10.36-14.07-26.41h0Z"/>
          <path class="st7" d="M117.77,63.5l1.89,5.31s17.48-5.98,28.3-5.55l-.79-5.15s-10.15-1.89-29.4,5.39Z"/>
          <path class="st7" d="M57.72,151.5l5.91-.06s.19-18.66,3.94-28.81l-5.7-.77s-5.12,9.09-4.14,29.64h0Z"/>
          <path class="st7" d="M122.96,237.32l1.77-5.7s-17.5-6.08-25.99-12.78l-2.55,4.88s6.91,8.18,26.77,13.6h0Z"/>
          <path class="st7" d="M226.05,199.85l-4.81-3.42s-10.77,15.31-19.77,21.31l4.2,3.63s8.89-5.24,20.38-21.52Z"/>
        </g>
        <g>
          <line class="st8" x1="204.4" y1="15.13" x2="202.4" y2="19.97"/>
          <line class="st8" x1="200.15" y1="13.46" x2="198.31" y2="18.36"/>
          <line class="st8" x1="195.85" y1="11.93" x2="194.16" y2="16.89"/>
          <line class="st8" x1="191.5" y1="10.54" x2="189.97" y2="15.54"/>
          <line class="st8" x1="187.12" y1="9.28" x2="185.74" y2="14.33"/>
          <line class="st8" x1="182.69" y1="8.16" x2="181.48" y2="13.25"/>
          <line class="st8" x1="178.23" y1="7.19" x2="177.18" y2="12.31"/>
          <line class="st8" x1="173.75" y1="6.35" x2="172.85" y2="11.5"/>
          <line class="st8" x1="169.24" y1="5.65" x2="168.5" y2="10.83"/>
          <line class="st8" x1="164.71" y1="5.09" x2="164.14" y2="10.29"/>
          <line class="st8" x1="160.16" y1="4.68" x2="159.76" y2="9.89"/>
          <line class="st8" x1="155.61" y1="4.41" x2="155.37" y2="9.64"/>
          <line class="st8" x1="151.04" y1="4.28" x2="150.96" y2="9.51"/>
          <line class="st8" x1="146.48" y1="4.3" x2="146.57" y2="9.53"/>
          <line class="st8" x1="141.92" y1="4.46" x2="142.17" y2="9.69"/>
          <line class="st8" x1="137.37" y1="4.76" x2="137.78" y2="9.98"/>
          <line class="st8" x1="132.83" y1="5.21" x2="133.4" y2="10.41"/>
          <line class="st8" x1="128.3" y1="5.8" x2="129.04" y2="10.98"/>
          <line class="st8" x1="123.79" y1="6.52" x2="124.7" y2="11.68"/>
          <line class="st8" x1="119.32" y1="7.4" x2="120.38" y2="12.52"/>
          <line class="st8" x1="114.86" y1="8.41" x2="116.09" y2="13.5"/>
          <line class="st8" x1="110.45" y1="9.56" x2="111.83" y2="14.61"/>
          <line class="st8" x1="106.07" y1="10.85" x2="107.61" y2="15.85"/>
          <line class="st8" x1="101.73" y1="12.27" x2="103.43" y2="17.22"/>
          <line class="st8" x1="97.45" y1="13.84" x2="99.3" y2="18.73"/>
          <line class="st8" x1="93.21" y1="15.53" x2="95.21" y2="20.37"/>
          <line class="st8" x1="89.02" y1="17.36" x2="91.18" y2="22.13"/>
          <line class="st8" x1="84.9" y1="19.32" x2="87.21" y2="24.02"/>
          <line class="st8" x1="80.84" y1="21.4" x2="83.3" y2="26.03"/>
          <line class="st8" x1="76.85" y1="23.62" x2="79.45" y2="28.16"/>
          <line class="st8" x1="72.93" y1="25.96" x2="75.67" y2="30.42"/>
          <line class="st8" x1="69.09" y1="28.41" x2="71.97" y2="32.79"/>
          <line class="st8" x1="65.32" y1="30.99" x2="68.33" y2="35.27"/>
          <line class="st8" x1="61.64" y1="33.69" x2="64.79" y2="37.87"/>
          <line class="st8" x1="58.04" y1="36.5" x2="61.32" y2="40.58"/>
          <line class="st8" x1="54.53" y1="39.42" x2="57.94" y2="43.4"/>
          <line class="st8" x1="51.12" y1="42.45" x2="54.65" y2="46.32"/>
          <line class="st8" x1="47.81" y1="45.59" x2="51.46" y2="49.34"/>
          <line class="st8" x1="44.59" y1="48.83" x2="48.36" y2="52.47"/>
          <line class="st8" x1="41.48" y1="52.16" x2="45.36" y2="55.69"/>
          <line class="st8" x1="38.47" y1="55.6" x2="42.46" y2="58.99"/>
          <line class="st8" x1="35.58" y1="59.13" x2="39.67" y2="62.4"/>
          <line class="st8" x1="32.79" y1="62.74" x2="36.98" y2="65.88"/>
          <line class="st8" x1="30.12" y1="66.45" x2="34.41" y2="69.45"/>
          <line class="st8" x1="27.57" y1="70.23" x2="31.95" y2="73.1"/>
          <line class="st8" x1="25.14" y1="74.09" x2="29.61" y2="76.82"/>
          <line class="st8" x1="22.83" y1="78.03" x2="27.38" y2="80.62"/>
          <line class="st8" x1="20.65" y1="82.04" x2="25.28" y2="84.48"/>
          <line class="st8" x1="18.59" y1="86.11" x2="23.3" y2="88.41"/>
          <line class="st8" x1="16.66" y1="90.25" x2="21.44" y2="92.4"/>
          <line class="st8" x1="14.87" y1="94.45" x2="19.71" y2="96.44"/>
          <line class="st8" x1="13.2" y1="98.69" x2="18.1" y2="100.54"/>
          <line class="st8" x1="11.67" y1="102.99" x2="16.63" y2="104.68"/>
          <line class="st8" x1="10.28" y1="107.34" x2="15.28" y2="108.87"/>
          <line class="st8" x1="9.02" y1="111.73" x2="14.07" y2="113.1"/>
          <line class="st8" x1="7.9" y1="116.15" x2="12.99" y2="117.36"/>
          <line class="st8" x1="6.92" y1="120.61" x2="12.05" y2="121.66"/>
          <line class="st8" x1="6.08" y1="125.09" x2="11.24" y2="125.99"/>
          <line class="st8" x1="5.39" y1="129.6" x2="10.57" y2="130.33"/>
          <line class="st8" x1="4.83" y1="134.13" x2="10.03" y2="134.7"/>
          <line class="st8" x1="4.42" y1="138.68" x2="9.63" y2="139.08"/>
          <line class="st8" x1="4.15" y1="143.24" x2="9.37" y2="143.48"/>
          <line class="st8" x1="4.02" y1="147.8" x2="9.25" y2="147.87"/>
          <line class="st8" x1="4.03" y1="152.36" x2="9.27" y2="152.27"/>
          <line class="st8" x1="4.19" y1="156.92" x2="9.42" y2="156.67"/>
          <line class="st8" x1="4.5" y1="161.48" x2="9.72" y2="161.06"/>
          <line class="st8" x1="4.95" y1="166.02" x2="10.15" y2="165.44"/>
          <line class="st8" x1="5.53" y1="170.55" x2="10.71" y2="169.8"/>
          <line class="st8" x1="6.26" y1="175.05" x2="11.42" y2="174.14"/>
          <line class="st8" x1="7.14" y1="179.53" x2="12.26" y2="178.46"/>
          <line class="st8" x1="8.15" y1="183.98" x2="13.24" y2="182.75"/>
          <line class="st8" x1="9.3" y1="188.4" x2="14.35" y2="187.01"/>
          <line class="st8" x1="10.59" y1="192.78" x2="15.59" y2="191.23"/>
          <line class="st8" x1="12.01" y1="197.11" x2="16.96" y2="195.41"/>
          <line class="st8" x1="13.58" y1="201.4" x2="18.47" y2="199.54"/>
          <line class="st8" x1="15.27" y1="205.64" x2="20.11" y2="203.62"/>
          <line class="st8" x1="17.1" y1="209.82" x2="21.87" y2="207.65"/>
          <line class="st8" x1="19.05" y1="213.94" x2="23.76" y2="211.63"/>
          <line class="st8" x1="21.14" y1="218" x2="25.77" y2="215.54"/>
          <line class="st8" x1="23.36" y1="221.99" x2="27.9" y2="219.39"/>
          <line class="st8" x1="25.7" y1="225.91" x2="30.15" y2="223.17"/>
          <line class="st8" x1="28.15" y1="229.76" x2="32.52" y2="226.87"/>
          <line class="st8" x1="30.73" y1="233.52" x2="35.01" y2="230.5"/>
          <line class="st8" x1="33.43" y1="237.2" x2="37.61" y2="234.05"/>
          <line class="st8" x1="36.24" y1="240.8" x2="40.32" y2="237.52"/>
          <line class="st8" x1="39.16" y1="244.3" x2="43.14" y2="240.9"/>
          <line class="st8" x1="42.2" y1="247.72" x2="46.06" y2="244.18"/>
          <line class="st8" x1="45.33" y1="251.03" x2="49.09" y2="247.38"/>
          <line class="st8" x1="48.57" y1="254.25" x2="52.21" y2="250.48"/>
          <line class="st8" x1="51.91" y1="257.36" x2="55.43" y2="253.48"/>
          <line class="st8" x1="55.35" y1="260.37" x2="58.74" y2="256.38"/>
          <line class="st8" x1="58.87" y1="263.26" x2="62.14" y2="259.17"/>
          <line class="st8" x1="62.49" y1="266.05" x2="65.62" y2="261.85"/>
          <line class="st8" x1="66.19" y1="268.71" x2="69.19" y2="264.43"/>
          <line class="st8" x1="69.97" y1="271.27" x2="72.84" y2="266.89"/>
          <line class="st8" x1="73.84" y1="273.7" x2="76.56" y2="269.23"/>
          <line class="st8" x1="77.77" y1="276.01" x2="80.36" y2="271.46"/>
          <line class="st8" x1="81.78" y1="278.19" x2="84.22" y2="273.56"/>
          <line class="st8" x1="85.85" y1="280.25" x2="88.15" y2="275.54"/>
          <line class="st8" x1="89.99" y1="282.18" x2="92.14" y2="277.4"/>
          <line class="st8" x1="94.18" y1="283.97" x2="96.18" y2="279.13"/>
          <line class="st8" x1="98.43" y1="285.63" x2="100.28" y2="280.74"/>
          <line class="st8" x1="102.73" y1="287.17" x2="104.42" y2="282.21"/>
          <line class="st8" x1="107.07" y1="288.56" x2="108.61" y2="283.56"/>
          <line class="st8" x1="111.46" y1="289.82" x2="112.84" y2="284.77"/>
          <line class="st8" x1="115.89" y1="290.94" x2="117.11" y2="285.84"/>
          <line class="st8" x1="120.34" y1="291.92" x2="121.4" y2="286.79"/>
          <line class="st8" x1="124.83" y1="292.76" x2="125.73" y2="287.6"/>
          <line class="st8" x1="129.34" y1="293.45" x2="130.08" y2="288.27"/>
          <line class="st8" x1="133.87" y1="294.01" x2="134.44" y2="288.8"/>
          <line class="st8" x1="138.42" y1="294.42" x2="138.82" y2="289.2"/>
          <line class="st8" x1="142.98" y1="294.69" x2="143.22" y2="289.46"/>
          <line class="st8" x1="147.54" y1="294.82" x2="147.62" y2="289.58"/>
          <line class="st8" x1="152.1" y1="294.8" x2="152.01" y2="289.56"/>
          <line class="st8" x1="156.66" y1="294.64" x2="156.41" y2="289.41"/>
          <line class="st8" x1="161.21" y1="294.34" x2="160.8" y2="289.12"/>
          <line class="st8" x1="165.76" y1="293.9" x2="165.18" y2="288.69"/>
          <line class="st8" x1="170.28" y1="293.31" x2="169.54" y2="288.12"/>
          <line class="st8" x1="174.79" y1="292.58" x2="173.88" y2="287.42"/>
          <line class="st8" x1="179.27" y1="291.7" x2="178.2" y2="286.57"/>
          <line class="st8" x1="183.72" y1="290.69" x2="182.49" y2="285.6"/>
          <line class="st8" x1="188.13" y1="289.54" x2="186.75" y2="284.49"/>
          <line class="st8" x1="192.51" y1="288.25" x2="190.96" y2="283.25"/>
          <line class="st8" x1="196.85" y1="286.83" x2="195.15" y2="281.87"/>
          <line class="st8" x1="201.14" y1="285.27" x2="199.28" y2="280.36"/>
          <line class="st8" x1="205.37" y1="283.57" x2="203.37" y2="278.73"/>
          <line class="st8" x1="209.55" y1="281.74" x2="207.4" y2="276.97"/>
          <line class="st8" x1="213.68" y1="279.78" x2="211.37" y2="275.08"/>
          <line class="st8" x1="217.74" y1="277.69" x2="215.28" y2="273.07"/>
          <line class="st8" x1="221.73" y1="275.48" x2="219.13" y2="270.93"/>
          <line class="st8" x1="225.65" y1="273.15" x2="222.91" y2="268.68"/>
          <line class="st8" x1="229.49" y1="270.69" x2="226.61" y2="266.31"/>
          <line class="st8" x1="233.26" y1="268.1" x2="230.24" y2="263.83"/>
          <line class="st8" x1="236.94" y1="265.41" x2="233.79" y2="261.23"/>
          <line class="st8" x1="240.53" y1="262.6" x2="237.26" y2="258.52"/>
          <line class="st8" x1="244.04" y1="259.68" x2="240.64" y2="255.7"/>
          <line class="st8" x1="247.45" y1="256.65" x2="243.93" y2="252.78"/>
          <line class="st8" x1="250.77" y1="253.51" x2="247.12" y2="249.75"/>
          <line class="st8" x1="253.98" y1="250.27" x2="250.22" y2="246.63"/>
          <line class="st8" x1="257.09" y1="246.94" x2="253.22" y2="243.41"/>
          <line class="st8" x1="260.1" y1="243.5" x2="256.12" y2="240.1"/>
          <line class="st8" x1="263" y1="239.97" x2="258.91" y2="236.7"/>
          <line class="st8" x1="265.78" y1="236.35" x2="261.59" y2="233.21"/>
          <line class="st8" x1="268.45" y1="232.65" x2="264.17" y2="229.65"/>
          <line class="st8" x1="271" y1="228.87" x2="266.63" y2="226"/>
          <line class="st8" x1="273.43" y1="225.01" x2="268.97" y2="222.27"/>
          <line class="st8" x1="275.74" y1="221.07" x2="271.19" y2="218.48"/>
          <line class="st8" x1="277.92" y1="217.06" x2="273.3" y2="214.62"/>
          <line class="st8" x1="279.98" y1="212.99" x2="275.28" y2="210.69"/>
          <line class="st8" x1="281.91" y1="208.85" x2="277.14" y2="206.7"/>
          <line class="st8" x1="283.71" y1="204.66" x2="278.87" y2="202.66"/>
          <line class="st8" x1="285.37" y1="200.41" x2="280.48" y2="198.56"/>
          <line class="st8" x1="286.9" y1="196.11" x2="281.95" y2="194.42"/>
          <line class="st8" x1="288.29" y1="191.76" x2="283.29" y2="190.23"/>
          <line class="st8" x1="289.55" y1="187.38" x2="284.51" y2="186"/>
          <line class="st8" x1="290.67" y1="182.95" x2="285.58" y2="181.73"/>
          <line class="st8" x1="291.65" y1="178.5" x2="286.53" y2="177.44"/>
          <line class="st8" x1="292.49" y1="174.01" x2="287.34" y2="173.11"/>
          <line class="st8" x1="293.19" y1="169.5" x2="288.01" y2="168.77"/>
          <line class="st8" x1="293.74" y1="164.97" x2="288.54" y2="164.4"/>
          <line class="st8" x1="294.16" y1="160.43" x2="288.94" y2="160.02"/>
          <line class="st8" x1="294.42" y1="155.87" x2="289.2" y2="155.62"/>
          <line class="st8" x1="294.55" y1="151.31" x2="289.32" y2="151.23"/>
          <line class="st8" x1="294.54" y1="146.74" x2="289.3" y2="146.83"/>
          <line class="st8" x1="294.37" y1="142.18" x2="289.15" y2="142.43"/>
          <line class="st8" x1="294.07" y1="137.63" x2="288.86" y2="138.04"/>
          <line class="st8" x1="293.63" y1="133.09" x2="288.43" y2="133.66"/>
          <line class="st8" x1="293.04" y1="128.56" x2="287.86" y2="129.3"/>
          <line class="st8" x1="292.31" y1="124.06" x2="287.15" y2="124.96"/>
          <line class="st8" x1="291.44" y1="119.58" x2="286.31" y2="120.64"/>
          <line class="st8" x1="290.42" y1="115.12" x2="285.33" y2="116.35"/>
          <line class="st8" x1="289.27" y1="110.71" x2="284.23" y2="112.09"/>
          <line class="st8" x1="287.98" y1="106.33" x2="282.98" y2="107.87"/>
          <line class="st8" x1="286.56" y1="102" x2="281.61" y2="103.69"/>
          <line class="st8" x1="285" y1="97.71" x2="280.1" y2="99.56"/>
          <line class="st8" x1="283.3" y1="93.47" x2="278.47" y2="95.48"/>
          <line class="st8" x1="281.47" y1="89.29" x2="276.71" y2="91.45"/>
          <line class="st8" x1="279.52" y1="85.17" x2="274.82" y2="87.47"/>
          <line class="st8" x1="277.43" y1="81.11" x2="272.81" y2="83.56"/>
          <line class="st8" x1="275.22" y1="77.12" x2="270.67" y2="79.71"/>
          <line class="st8" x1="272.88" y1="73.2" x2="268.42" y2="75.93"/>
          <line class="st8" x1="270.42" y1="69.36" x2="266.04" y2="72.23"/>
          <line class="st8" x1="267.84" y1="65.59" x2="263.56" y2="68.6"/>
          <line class="st8" x1="265.14" y1="61.91" x2="260.96" y2="65.05"/>
          <line class="st8" x1="262.33" y1="58.31" x2="258.25" y2="61.58"/>
          <line class="st8" x1="259.41" y1="54.81" x2="255.44" y2="58.2"/>
          <line class="st8" x1="256.38" y1="51.39" x2="252.51" y2="54.91"/>
          <line class="st8" x1="253.24" y1="48.08" x2="249.49" y2="51.72"/>
          <line class="st8" x1="250.01" y1="44.86" x2="246.37" y2="48.62"/>
          <line class="st8" x1="246.67" y1="41.75" x2="243.15" y2="45.62"/>
          <line class="st8" x1="243.23" y1="38.75" x2="239.84" y2="42.72"/>
          <line class="st8" x1="239.71" y1="35.85" x2="236.44" y2="39.93"/>
          <line class="st8" x1="236.09" y1="33.07" x2="232.95" y2="37.25"/>
          <line class="st8" x1="232.39" y1="30.4" x2="229.38" y2="34.68"/>
          <line class="st8" x1="228.61" y1="27.85" x2="225.73" y2="32.21"/>
          <line class="st8" x1="224.74" y1="25.41" x2="222.01" y2="29.88"/>
          <line class="st8" x1="220.81" y1="23.11" x2="218.21" y2="27.65"/>
          <line class="st8" x1="216.8" y1="20.92" x2="214.35" y2="25.54"/>
          <line class="st8" x1="212.73" y1="18.87" x2="210.43" y2="23.56"/>
          <line class="st8" x1="208.59" y1="16.94" x2="206.43" y2="21.7"/>
        </g>
        <path class="st9" d="M208.56,174.04c-13.52,32.74-51.03,48.31-83.76,34.79-32.74-13.52-48.31-51.02-34.79-83.76,13.52-32.73,51.02-48.31,83.76-34.78,32.74,13.52,48.31,51.02,34.79,83.76h0Z"/>
        <g>
          <g>
            <g>
              <polygon class="st7" points="193.11 42.34 139.54 127.69 172.02 141.11 193.11 42.34"/>
              <polygon class="st6" points="192.61 44.7 193.11 42.34 139.54 127.69 155.58 134.32 192.61 44.7"/>
            </g>
            <g>
              <polygon class="st7" points="42.08 105.73 127.43 159.29 140.84 126.82 42.08 105.73"/>
              <polygon class="st6" points="44.43 106.23 42.08 105.73 127.43 159.29 134.05 143.26 44.43 106.23"/>
            </g>
            <g>
              <polygon class="st7" points="105.46 256.76 159.03 171.41 126.55 157.99 105.46 256.76"/>
              <polygon class="st6" points="105.97 254.41 105.46 256.76 159.03 171.41 142.99 164.79 105.97 254.41"/>
            </g>
            <g>
              <polygon class="st7" points="256.5 193.37 171.15 139.81 157.73 172.28 256.5 193.37"/>
              <polygon class="st6" points="254.14 192.87 256.5 193.37 171.15 139.81 164.52 155.84 254.14 192.87"/>
            </g>
          </g>
          <g>
            <g>
              <polygon class="st7" points="234.95 113.6 156.16 131.63 166.97 157.65 234.95 113.6"/>
              <polygon class="st6" points="233.33 114.65 234.95 113.6 156.16 131.63 161.5 144.48 233.33 114.65"/>
            </g>
            <g>
              <polygon class="st7" points="113.33 63.89 131.36 142.68 157.39 131.87 113.33 63.89"/>
              <polygon class="st6" points="114.39 65.51 113.33 63.89 131.36 142.68 144.21 137.34 114.39 65.51"/>
            </g>
            <g>
              <polygon class="st7" points="63.63 185.5 142.41 167.47 131.61 141.45 63.63 185.5"/>
              <polygon class="st6" points="65.25 184.45 63.63 185.5 142.41 167.47 137.08 154.62 65.25 184.45"/>
            </g>
            <g>
              <polygon class="st7" points="185.24 235.21 167.21 156.42 141.18 167.23 185.24 235.21"/>
              <polygon class="st6" points="184.19 233.59 185.24 235.21 167.21 156.42 154.36 161.76 184.19 233.59"/>
            </g>
          </g>
          <path class="st7" d="M170.73,158.41c-4.89,11.84-18.46,17.48-30.31,12.59-11.85-4.9-17.48-18.46-12.59-30.31s18.46-17.48,30.31-12.59c11.84,4.9,17.48,18.46,12.58,30.31h0Z"/>
          <path class="st6" d="M162.52,155.02c-3.02,7.3-11.39,10.78-18.69,7.76-7.31-3.02-10.78-11.39-7.77-18.7,3.02-7.31,11.39-10.78,18.7-7.76,7.3,3.02,10.78,11.39,7.76,18.7h0Z"/>
        </g>
        <g>
          <path class="st0" d="M156.07,152.35c-1.55,3.75-5.84,5.53-9.58,3.98-3.75-1.55-5.53-5.84-3.98-9.58,1.55-3.75,5.84-5.53,9.58-3.98,3.75,1.55,5.53,5.84,3.98,9.59h0Z"/>
          <path class="st5" d="M154.73,151.8c-1.24,3-4.68,4.44-7.69,3.19-3.01-1.24-4.44-4.69-3.2-7.69s4.69-4.44,7.69-3.2c3.01,1.24,4.44,4.69,3.2,7.7Z"/>
        </g>
      </g>
    </g>
  </g>
</svg>