<?xml version="1.0" encoding="UTF-8"?>
<svg id="Layer_1" xmlns="http://www.w3.org/2000/svg" version="1.1" viewBox="0 0 300 300">
  <!-- Generator: Adobe Illustrator 30.2.1, SVG Export Plug-In . SVG Version: 2.1.1 Build 1)  -->
  <defs>
    <style>
      .st0, .st1, .st2, .st3, .st4, .st5, .st6 {
        stroke: #e5bb53;
        stroke-miterlimit: 10;
      }

      .st1 {
        fill: #fbd63b;
      }

      .st2 {
        fill: #f8be31;
      }

      .st3 {
        fill: #f7a62b;
      }

      .st4 {
        fill: #333;
      }

      .st5 {
        fill: #1a1a1a;
      }

      .st6 {
        fill: #4d4d4d;
      }
    </style>
  </defs>
  <g id="Ka_bah">
    <path class="st5" d="M218.85,52.79v108.08l-69.28,22.17-69.28-22.17V52.79l69.28-19.4,69.28,19.4Z"/>
    <path class="st6" d="M80.29,52.79l69.28-19.4,69.28,19.4-69.28,22.17-69.28-22.17Z"/>
    <path class="st4" d="M149.57,74.96l-50.8-16.27,50.8-14.22,50.8,14.22-50.8,16.27Z"/>
    <path class="st0" d="M218.85,52.79v108.08l-33.25,10.64-24.94,7.98-11.08,3.55v-108.08l69.28-22.17Z"/>
    <path class="st2" d="M185.6,124.84v46.67l-21.7,6.96-3.24,1.03v-46.33l24.94-8.31Z"/>
    <path class="st1" d="M160.66,101.62l-11.08,3.55-11.08-3.55v11.08l11.08,3.55,11.08-3.55v-11.08Z"/>
    <path class="st2" d="M160.66,101.62l-11.08,3.55v11.08l11.08-3.55v-11.08Z"/>
    <path class="st2" d="M177.28,96.44l-5.54,6.24,5.54,5.54,5.54-5.54-5.54-6.24Z"/>
    <path class="st1" d="M121.86,96.44l-5.54,6.24,5.54,5.54,5.54-5.54-5.54-6.24Z"/>
    <path class="st2" d="M210.54,85.66v11.08l-16.63,5.32v-11.08l16.63-5.32Z"/>
    <path class="st1" d="M88.61,85.66v11.08l16.63,5.32v-11.08l-16.63-5.32Z"/>
    <path class="st1" d="M218.85,60.83v11.08l-69.28,22.17-69.28-22.17v-11.08l69.28,22.17,69.28-22.17Z"/>
    <path class="st2" d="M218.85,72.19l-69.28,22.17v-11.36l69.28-21.89v11.08Z"/>
    <path class="st3" d="M185.6,124.84v46.67l-21.7,6.96c5.36-3.28,9.93-7.69,13.38-12.94,4.17-6.29,6.61-13.56,7.09-21.09l1.22-19.59Z"/>
  </g>
</svg>